  0
SECTION
  2
BLOCKS
  0
ENDSEC
  0
SECTION
  2
ENTITIES
  0
LINE
  8
0
 10
200
 20
30
 11
0
 21
30
  0
LINE
  8
0
 10
0
 20
30
 11
0
 21
0
  0
LINE
  8
0
 10
0
 20
0
 11
200
 21
0
  0
LINE
  8
0
 10
200
 20
0
 11
200
 21
30
  0
LINE
  8
0
 10
8.52788
 20
7.39156
 11
6.29773
 21
8.52788
  0
LINE
  8
0
 10
6.29773
 20
8.52788
 11
4.52788
 21
10.2977
  0
LINE
  8
0
 10
4.52788
 20
10.2977
 11
3.39156
 21
12.5279
  0
LINE
  8
0
 10
3.39156
 20
12.5279
 11
3
 21
15
  0
LINE
  8
0
 10
3
 20
15
 11
3.39156
 21
17.4721
  0
LINE
  8
0
 10
3.39156
 20
17.4721
 11
4.52788
 21
19.7023
  0
LINE
  8
0
 10
4.52788
 20
19.7023
 11
6.29773
 21
21.4721
  0
LINE
  8
0
 10
6.29773
 20
21.4721
 11
8.52788
 21
22.6084
  0
LINE
  8
0
 10
8.52788
 20
22.6084
 11
11
 21
23
  0
LINE
  8
0
 10
11
 20
23
 11
13.4721
 21
22.6084
  0
LINE
  8
0
 10
13.4721
 20
22.6084
 11
15.7023
 21
21.4721
  0
LINE
  8
0
 10
15.7023
 20
21.4721
 11
17.4721
 21
19.7023
  0
LINE
  8
0
 10
17.4721
 20
19.7023
 11
18.6084
 21
17.4721
  0
LINE
  8
0
 10
18.6084
 20
17.4721
 11
19
 21
15
  0
LINE
  8
0
 10
19
 20
15
 11
18.6084
 21
12.5279
  0
LINE
  8
0
 10
18.6084
 20
12.5279
 11
17.4721
 21
10.2977
  0
LINE
  8
0
 10
17.4721
 20
10.2977
 11
15.7023
 21
8.52788
  0
LINE
  8
0
 10
15.7023
 20
8.52788
 11
13.4721
 21
7.39156
  0
LINE
  8
0
 10
13.4721
 20
7.39156
 11
11
 21
7
  0
LINE
  8
0
 10
11
 20
7
 11
8.52788
 21
7.39156
  0
LINE
  8
0
 10
11.309
 20
18.0489
 11
11.5878
 21
18.191
  0
LINE
  8
0
 10
11.5878
 20
18.191
 11
11.809
 21
18.4122
  0
LINE
  8
0
 10
11.809
 20
18.4122
 11
11.951
 21
18.691
  0
LINE
  8
0
 10
11.951
 20
18.691
 11
12
 21
19
  0
LINE
  8
0
 10
12
 20
19
 11
11.951
 21
19.309
  0
LINE
  8
0
 10
11.951
 20
19.309
 11
11.809
 21
19.5878
  0
LINE
  8
0
 10
11.809
 20
19.5878
 11
11.5878
 21
19.809
  0
LINE
  8
0
 10
11.5878
 20
19.809
 11
11.309
 21
19.951
  0
LINE
  8
0
 10
11.309
 20
19.951
 11
11
 21
20
  0
LINE
  8
0
 10
11
 20
20
 11
10.691
 21
19.951
  0
LINE
  8
0
 10
10.691
 20
19.951
 11
10.4122
 21
19.809
  0
LINE
  8
0
 10
10.4122
 20
19.809
 11
10.191
 21
19.5878
  0
LINE
  8
0
 10
10.191
 20
19.5878
 11
10.049
 21
19.309
  0
LINE
  8
0
 10
10.049
 20
19.309
 11
10
 21
19
  0
LINE
  8
0
 10
10
 20
19
 11
10.049
 21
18.691
  0
LINE
  8
0
 10
10.049
 20
18.691
 11
10.191
 21
18.4122
  0
LINE
  8
0
 10
10.191
 20
18.4122
 11
10.4122
 21
18.191
  0
LINE
  8
0
 10
10.4122
 20
18.191
 11
10.691
 21
18.0489
  0
LINE
  8
0
 10
10.691
 20
18.0489
 11
11
 21
18
  0
LINE
  8
0
 10
11
 20
18
 11
11.309
 21
18.0489
  0
LINE
  8
0
 10
11.309
 20
14.049
 11
11.5878
 21
14.191
  0
LINE
  8
0
 10
11.5878
 20
14.191
 11
11.809
 21
14.4122
  0
LINE
  8
0
 10
11.809
 20
14.4122
 11
11.951
 21
14.691
  0
LINE
  8
0
 10
11.951
 20
14.691
 11
12
 21
15
  0
LINE
  8
0
 10
12
 20
15
 11
11.951
 21
15.309
  0
LINE
  8
0
 10
11.951
 20
15.309
 11
11.809
 21
15.5878
  0
LINE
  8
0
 10
11.809
 20
15.5878
 11
11.5878
 21
15.809
  0
LINE
  8
0
 10
11.5878
 20
15.809
 11
11.309
 21
15.951
  0
LINE
  8
0
 10
11.309
 20
15.951
 11
11
 21
16
  0
LINE
  8
0
 10
11
 20
16
 11
10.691
 21
15.951
  0
LINE
  8
0
 10
10.691
 20
15.951
 11
10.4122
 21
15.809
  0
LINE
  8
0
 10
10.4122
 20
15.809
 11
10.191
 21
15.5878
  0
LINE
  8
0
 10
10.191
 20
15.5878
 11
10.049
 21
15.309
  0
LINE
  8
0
 10
10.049
 20
15.309
 11
10
 21
15
  0
LINE
  8
0
 10
10
 20
15
 11
10.049
 21
14.691
  0
LINE
  8
0
 10
10.049
 20
14.691
 11
10.191
 21
14.4122
  0
LINE
  8
0
 10
10.191
 20
14.4122
 11
10.4122
 21
14.191
  0
LINE
  8
0
 10
10.4122
 20
14.191
 11
10.691
 21
14.049
  0
LINE
  8
0
 10
10.691
 20
14.049
 11
11
 21
14
  0
LINE
  8
0
 10
11
 20
14
 11
11.309
 21
14.049
  0
LINE
  8
0
 10
11.309
 20
10.049
 11
11.5878
 21
10.191
  0
LINE
  8
0
 10
11.5878
 20
10.191
 11
11.809
 21
10.4122
  0
LINE
  8
0
 10
11.809
 20
10.4122
 11
11.951
 21
10.691
  0
LINE
  8
0
 10
11.951
 20
10.691
 11
12
 21
11
  0
LINE
  8
0
 10
12
 20
11
 11
11.951
 21
11.309
  0
LINE
  8
0
 10
11.951
 20
11.309
 11
11.809
 21
11.5878
  0
LINE
  8
0
 10
11.809
 20
11.5878
 11
11.5878
 21
11.809
  0
LINE
  8
0
 10
11.5878
 20
11.809
 11
11.309
 21
11.9511
  0
LINE
  8
0
 10
11.309
 20
11.9511
 11
11
 21
12
  0
LINE
  8
0
 10
11
 20
12
 11
10.691
 21
11.9511
  0
LINE
  8
0
 10
10.691
 20
11.9511
 11
10.4122
 21
11.809
  0
LINE
  8
0
 10
10.4122
 20
11.809
 11
10.191
 21
11.5878
  0
LINE
  8
0
 10
10.191
 20
11.5878
 11
10.049
 21
11.309
  0
LINE
  8
0
 10
10.049
 20
11.309
 11
10
 21
11
  0
LINE
  8
0
 10
10
 20
11
 11
10.049
 21
10.691
  0
LINE
  8
0
 10
10.049
 20
10.691
 11
10.191
 21
10.4122
  0
LINE
  8
0
 10
10.191
 20
10.4122
 11
10.4122
 21
10.191
  0
LINE
  8
0
 10
10.4122
 20
10.191
 11
10.691
 21
10.049
  0
LINE
  8
0
 10
10.691
 20
10.049
 11
11
 21
10
  0
LINE
  8
0
 10
11
 20
10
 11
11.309
 21
10.049
  0
ENDSEC
  0
SECTION
  2
OBJECTS
  0
DICTIONARY
  0
ENDSEC
  0
EOF
