  0
SECTION
  2
BLOCKS
  0
ENDSEC
  0
SECTION
  2
ENTITIES
  0
LINE
  8
0
 10
200
 20
30
 11
0
 21
30
  0
LINE
  8
0
 10
0
 20
30
 11
0
 21
0
  0
LINE
  8
0
 10
0
 20
0
 11
200
 21
0
  0
LINE
  8
0
 10
200
 20
0
 11
200
 21
30
  0
LINE
  8
0
 10
81.492
 20
4.00999
 11
81.5091
 21
4.25966
  0
LINE
  8
0
 10
81.5091
 20
4.25966
 11
81.5604
 21
4.51799
  0
LINE
  8
0
 10
81.5604
 20
4.51799
 11
81.646
 21
4.78499
  0
LINE
  8
0
 10
81.646
 20
4.78499
 11
81.7723
 21
5.07065
  0
LINE
  8
0
 10
81.7723
 20
5.07065
 11
81.9447
 21
5.38365
  0
LINE
  8
0
 10
81.9447
 20
5.38365
 11
82.163
 21
5.72398
  0
LINE
  8
0
 10
82.163
 20
5.72398
 11
81.142
 21
5.72398
  0
LINE
  8
0
 10
81.142
 20
5.72398
 11
81.142
 21
5.92999
  0
LINE
  8
0
 10
81.142
 20
5.92999
 11
82.397
 21
5.92999
  0
LINE
  8
0
 10
82.397
 20
5.92999
 11
82.397
 21
5.73299
  0
LINE
  8
0
 10
82.397
 20
5.73299
 11
82.2214
 21
5.45465
  0
LINE
  8
0
 10
82.2214
 20
5.45465
 11
82.0841
 21
5.21965
  0
LINE
  8
0
 10
82.0841
 20
5.21965
 11
81.985
 21
5.02798
  0
LINE
  8
0
 10
81.985
 20
5.02798
 11
81.9117
 21
4.85866
  0
LINE
  8
0
 10
81.9117
 20
4.85866
 11
81.8517
 21
4.69066
  0
LINE
  8
0
 10
81.8517
 20
4.69066
 11
81.805
 21
4.52399
  0
LINE
  8
0
 10
81.805
 20
4.52399
 11
81.7717
 21
4.35666
  0
LINE
  8
0
 10
81.7717
 20
4.35666
 11
81.7517
 21
4.18532
  0
LINE
  8
0
 10
81.7517
 20
4.18532
 11
81.745
 21
4.00999
  0
LINE
  8
0
 10
81.745
 20
4.00999
 11
81.492
 21
4.00999
  0
LINE
  8
0
 10
171.213
 20
4.00999
 11
171.213
 21
4.21599
  0
LINE
  8
0
 10
171.213
 20
4.21599
 11
171.695
 21
4.21599
  0
LINE
  8
0
 10
171.695
 20
4.21599
 11
171.695
 21
5.69899
  0
LINE
  8
0
 10
171.695
 20
5.69899
 11
171.268
 21
5.41798
  0
LINE
  8
0
 10
171.268
 20
5.41798
 11
171.268
 21
5.64699
  0
LINE
  8
0
 10
171.268
 20
5.64699
 11
171.715
 21
5.92999
  0
LINE
  8
0
 10
171.715
 20
5.92999
 11
171.938
 21
5.92999
  0
LINE
  8
0
 10
171.938
 20
5.92999
 11
171.938
 21
4.21599
  0
LINE
  8
0
 10
171.938
 20
4.21599
 11
172.399
 21
4.21599
  0
LINE
  8
0
 10
172.399
 20
4.21599
 11
172.399
 21
4.00999
  0
LINE
  8
0
 10
172.399
 20
4.00999
 11
171.213
 21
4.00999
  0
LINE
  8
0
 10
121.213
 20
4.00999
 11
121.213
 21
4.21599
  0
LINE
  8
0
 10
121.213
 20
4.21599
 11
121.695
 21
4.21599
  0
LINE
  8
0
 10
121.695
 20
4.21599
 11
121.695
 21
5.69899
  0
LINE
  8
0
 10
121.695
 20
5.69899
 11
121.268
 21
5.41798
  0
LINE
  8
0
 10
121.268
 20
5.41798
 11
121.268
 21
5.64699
  0
LINE
  8
0
 10
121.268
 20
5.64699
 11
121.715
 21
5.92999
  0
LINE
  8
0
 10
121.715
 20
5.92999
 11
121.938
 21
5.92999
  0
LINE
  8
0
 10
121.938
 20
5.92999
 11
121.938
 21
4.21599
  0
LINE
  8
0
 10
121.938
 20
4.21599
 11
122.399
 21
4.21599
  0
LINE
  8
0
 10
122.399
 20
4.21599
 11
122.399
 21
4.00999
  0
LINE
  8
0
 10
122.399
 20
4.00999
 11
121.213
 21
4.00999
  0
LINE
  8
0
 10
31
 20
0.00999451
 11
31
 21
4.00999
  0
LINE
  8
0
 10
31
 20
4.00999
 11
31.139
 21
4.00999
  0
LINE
  8
0
 10
31.139
 20
4.00999
 11
31.139
 21
4.18098
  0
LINE
  8
0
 10
31.139
 20
4.18098
 11
31.1883
 21
4.28154
  0
LINE
  8
0
 10
31.1883
 20
4.28154
 11
31.2443
 21
4.37387
  0
LINE
  8
0
 10
31.2443
 20
4.37387
 11
31.307
 21
4.45799
  0
LINE
  8
0
 10
31.307
 20
4.45799
 11
31.3741
 21
4.53543
  0
LINE
  8
0
 10
31.3741
 20
4.53543
 11
31.4434
 21
4.60776
  0
LINE
  8
0
 10
31.4434
 20
4.60776
 11
31.515
 21
4.67499
  0
LINE
  8
0
 10
31.515
 20
4.67499
 11
31.5874
 21
4.73865
  0
LINE
  8
0
 10
31.5874
 20
4.73865
 11
31.6594
 21
4.79898
  0
LINE
  8
0
 10
31.6594
 20
4.79898
 11
31.8006
 21
4.91188
  0
LINE
  8
0
 10
31.8006
 20
4.91188
 11
31.8652
 21
4.96754
  0
LINE
  8
0
 10
31.8652
 20
4.96754
 11
31.925
 21
5.02298
  0
LINE
  8
0
 10
31.925
 20
5.02298
 11
31.9787
 21
5.07921
  0
LINE
  8
0
 10
31.9787
 20
5.07921
 11
32.025
 21
5.13721
  0
LINE
  8
0
 10
32.025
 20
5.13721
 11
32.064
 21
5.19699
  0
LINE
  8
0
 10
32.064
 20
5.19699
 11
32.094
 21
5.26088
  0
LINE
  8
0
 10
32.094
 20
5.26088
 11
32.112
 21
5.32988
  0
LINE
  8
0
 10
32.112
 20
5.32988
 11
32.118
 21
5.40399
  0
LINE
  8
0
 10
32.118
 20
5.40399
 11
32.1078
 21
5.49965
  0
LINE
  8
0
 10
32.1078
 20
5.49965
 11
32.0771
 21
5.57999
  0
LINE
  8
0
 10
32.0771
 20
5.57999
 11
32.026
 21
5.64499
  0
LINE
  8
0
 10
32.026
 20
5.64499
 11
31.9568
 21
5.69276
  0
LINE
  8
0
 10
31.9568
 20
5.69276
 11
31.8718
 21
5.72144
  0
LINE
  8
0
 10
31.8718
 20
5.72144
 11
31.771
 21
5.73099
  0
LINE
  8
0
 10
31.771
 20
5.73099
 11
31.6737
 21
5.72165
  0
LINE
  8
0
 10
31.6737
 20
5.72165
 11
31.5883
 21
5.69365
  0
LINE
  8
0
 10
31.5883
 20
5.69365
 11
31.515
 21
5.64699
  0
LINE
  8
0
 10
31.515
 20
5.64699
 11
31.4574
 21
5.58344
  0
LINE
  8
0
 10
31.4574
 20
5.58344
 11
31.4181
 21
5.50476
  0
LINE
  8
0
 10
31.4181
 20
5.50476
 11
31.397
 21
5.41098
  0
LINE
  8
0
 10
31.397
 20
5.41098
 11
31.15
 21
5.43399
  0
LINE
  8
0
 10
31.15
 20
5.43399
 11
31.1834
 21
5.57498
  0
LINE
  8
0
 10
31.1834
 20
5.57498
 11
31.2478
 21
5.69533
  0
LINE
  8
0
 10
31.2478
 20
5.69533
 11
31.343
 21
5.79498
  0
LINE
  8
0
 10
31.343
 20
5.79498
 11
31.4648
 21
5.86998
  0
LINE
  8
0
 10
31.4648
 20
5.86998
 11
31.6074
 21
5.91499
  0
LINE
  8
0
 10
31.6074
 20
5.91499
 11
31.771
 21
5.92999
  0
LINE
  8
0
 10
31.771
 20
5.92999
 11
31.9476
 21
5.91499
  0
LINE
  8
0
 10
31.9476
 20
5.91499
 11
32.0945
 21
5.86998
  0
LINE
  8
0
 10
32.0945
 20
5.86998
 11
32.212
 21
5.79498
  0
LINE
  8
0
 10
32.212
 20
5.79498
 11
32.2981
 21
5.69243
  0
LINE
  8
0
 10
32.2981
 20
5.69243
 11
32.3498
 21
5.56476
  0
LINE
  8
0
 10
32.3498
 20
5.56476
 11
32.367
 21
5.41199
  0
LINE
  8
0
 10
32.367
 20
5.41199
 11
32.3613
 21
5.33876
  0
LINE
  8
0
 10
32.3613
 20
5.33876
 11
32.3443
 21
5.26576
  0
LINE
  8
0
 10
32.3443
 20
5.26576
 11
32.316
 21
5.19299
  0
LINE
  8
0
 10
32.316
 20
5.19299
 11
32.2771
 21
5.12032
  0
LINE
  8
0
 10
32.2771
 20
5.12032
 11
32.2271
 21
5.04765
  0
LINE
  8
0
 10
32.2271
 20
5.04765
 11
32.166
 21
4.97499
  0
LINE
  8
0
 10
32.166
 20
4.97499
 11
32.0791
 21
4.88965
  0
LINE
  8
0
 10
32.0791
 20
4.88965
 11
31.9518
 21
4.77765
  0
LINE
  8
0
 10
31.9518
 20
4.77765
 11
31.6877
 21
4.55765
  0
LINE
  8
0
 10
31.6877
 20
4.55765
 11
31.6053
 21
4.48166
  0
LINE
  8
0
 10
31.6053
 20
4.48166
 11
31.537
 21
4.41098
  0
LINE
  8
0
 10
31.537
 20
4.41098
 11
31.4814
 21
4.34444
  0
LINE
  8
0
 10
31.4814
 20
4.34444
 11
31.4374
 21
4.27943
  0
LINE
  8
0
 10
31.4374
 20
4.27943
 11
31.405
 21
4.21599
  0
LINE
  8
0
 10
31.405
 20
4.21599
 11
32.397
 21
4.21599
  0
LINE
  8
0
 10
32.397
 20
4.21599
 11
32.397
 21
4.00999
  0
LINE
  8
0
 10
32.397
 20
4.00999
 11
31.2
 21
4.00999
  0
LINE
  8
0
 10
31.2
 20
4.00999
 11
31.2
 21
0.00999451
  0
LINE
  8
0
 10
31.2
 20
0.00999451
 11
31
 21
0.00999451
  0
LINE
  8
0
 10
61.5801
 20
4.02277
 11
61.4371
 21
4.0611
  0
LINE
  8
0
 10
61.4371
 20
4.0611
 11
61.317
 21
4.12498
  0
LINE
  8
0
 10
61.317
 20
4.12498
 11
61.2217
 21
4.21388
  0
LINE
  8
0
 10
61.2217
 20
4.21388
 11
61.153
 21
4.32588
  0
LINE
  8
0
 10
61.153
 20
4.32588
 11
61.111
 21
4.46098
  0
LINE
  8
0
 10
61.111
 20
4.46098
 11
61.356
 21
4.48898
  0
LINE
  8
0
 10
61.356
 20
4.48898
 11
61.4342
 21
4.33287
  0
LINE
  8
0
 10
61.4342
 20
4.33287
 11
61.5662
 21
4.23921
  0
LINE
  8
0
 10
61.5662
 20
4.23921
 11
61.752
 21
4.20799
  0
LINE
  8
0
 10
61.752
 20
4.20799
 11
61.8731
 21
4.22076
  0
LINE
  8
0
 10
61.8731
 20
4.22076
 11
61.9751
 21
4.25909
  0
LINE
  8
0
 10
61.9751
 20
4.25909
 11
62.058
 21
4.32298
  0
LINE
  8
0
 10
62.058
 20
4.32298
 11
62.1197
 21
4.4091
  0
LINE
  8
0
 10
62.1197
 20
4.4091
 11
62.1567
 21
4.5141
  0
LINE
  8
0
 10
62.1567
 20
4.5141
 11
62.169
 21
4.63799
  0
LINE
  8
0
 10
62.169
 20
4.63799
 11
62.1566
 21
4.7471
  0
LINE
  8
0
 10
62.1566
 20
4.7471
 11
62.1192
 21
4.84109
  0
LINE
  8
0
 10
62.1192
 20
4.84109
 11
62.057
 21
4.91998
  0
LINE
  8
0
 10
62.057
 20
4.91998
 11
61.9743
 21
4.97998
  0
LINE
  8
0
 10
61.9743
 20
4.97998
 11
61.8743
 21
5.01599
  0
LINE
  8
0
 10
61.8743
 20
5.01599
 11
61.757
 21
5.02798
  0
LINE
  8
0
 10
61.757
 20
5.02798
 11
61.6926
 21
5.02454
  0
LINE
  8
0
 10
61.6926
 20
5.02454
 11
61.6312
 21
5.01421
  0
LINE
  8
0
 10
61.6312
 20
5.01421
 11
61.573
 21
4.99699
  0
LINE
  8
0
 10
61.573
 20
4.99699
 11
61.5163
 21
4.97154
  0
LINE
  8
0
 10
61.5163
 20
4.97154
 11
61.4597
 21
4.93654
  0
LINE
  8
0
 10
61.4597
 20
4.93654
 11
61.403
 21
4.89198
  0
LINE
  8
0
 10
61.403
 20
4.89198
 11
61.166
 21
4.89198
  0
LINE
  8
0
 10
61.166
 20
4.89198
 11
61.229
 21
5.92999
  0
LINE
  8
0
 10
61.229
 20
5.92999
 11
62.309
 21
5.92999
  0
LINE
  8
0
 10
62.309
 20
5.92999
 11
62.309
 21
5.72398
  0
LINE
  8
0
 10
62.309
 20
5.72398
 11
61.45
 21
5.72398
  0
LINE
  8
0
 10
61.45
 20
5.72398
 11
61.414
 21
5.10498
  0
LINE
  8
0
 10
61.414
 20
5.10498
 11
61.5278
 21
5.17221
  0
LINE
  8
0
 10
61.5278
 20
5.17221
 11
61.6584
 21
5.21254
  0
LINE
  8
0
 10
61.6584
 20
5.21254
 11
61.806
 21
5.22598
  0
LINE
  8
0
 10
61.806
 20
5.22598
 11
61.9805
 21
5.20799
  0
LINE
  8
0
 10
61.9805
 20
5.20799
 11
62.1295
 21
5.15399
  0
LINE
  8
0
 10
62.1295
 20
5.15399
 11
62.253
 21
5.06398
  0
LINE
  8
0
 10
62.253
 20
5.06398
 11
62.3458
 21
4.94577
  0
LINE
  8
0
 10
62.3458
 20
4.94577
 11
62.4014
 21
4.80577
  0
LINE
  8
0
 10
62.4014
 20
4.80577
 11
62.42
 21
4.64398
  0
LINE
  8
0
 10
62.42
 20
4.64398
 11
62.4001
 21
4.46121
  0
LINE
  8
0
 10
62.4001
 20
4.46121
 11
62.3404
 21
4.30621
  0
LINE
  8
0
 10
62.3404
 20
4.30621
 11
62.241
 21
4.17899
  0
LINE
  8
0
 10
62.241
 20
4.17899
 11
62.1069
 21
4.0851
  0
LINE
  8
0
 10
62.1069
 20
4.0851
 11
61.9419
 21
4.02876
  0
LINE
  8
0
 10
61.9419
 20
4.02876
 11
61.746
 21
4.00999
  0
LINE
  8
0
 10
61.746
 20
4.00999
 11
61.5801
 21
4.02277
  0
LINE
  8
0
 10
141.213
 20
4.00999
 11
141.213
 21
4.21599
  0
LINE
  8
0
 10
141.213
 20
4.21599
 11
141.695
 21
4.21599
  0
LINE
  8
0
 10
141.695
 20
4.21599
 11
141.695
 21
5.69899
  0
LINE
  8
0
 10
141.695
 20
5.69899
 11
141.268
 21
5.41798
  0
LINE
  8
0
 10
141.268
 20
5.41798
 11
141.268
 21
5.64699
  0
LINE
  8
0
 10
141.268
 20
5.64699
 11
141.715
 21
5.92999
  0
LINE
  8
0
 10
141.715
 20
5.92999
 11
141.938
 21
5.92999
  0
LINE
  8
0
 10
141.938
 20
5.92999
 11
141.938
 21
4.21599
  0
LINE
  8
0
 10
141.938
 20
4.21599
 11
142.399
 21
4.21599
  0
LINE
  8
0
 10
142.399
 20
4.21599
 11
142.399
 21
4.00999
  0
LINE
  8
0
 10
142.399
 20
4.00999
 11
141.213
 21
4.00999
  0
LINE
  8
0
 10
122.509
 20
4.00999
 11
122.509
 21
4.21599
  0
LINE
  8
0
 10
122.509
 20
4.21599
 11
122.991
 21
4.21599
  0
LINE
  8
0
 10
122.991
 20
4.21599
 11
122.991
 21
5.69899
  0
LINE
  8
0
 10
122.991
 20
5.69899
 11
122.564
 21
5.41798
  0
LINE
  8
0
 10
122.564
 20
5.41798
 11
122.564
 21
5.64699
  0
LINE
  8
0
 10
122.564
 20
5.64699
 11
123.011
 21
5.92999
  0
LINE
  8
0
 10
123.011
 20
5.92999
 11
123.234
 21
5.92999
  0
LINE
  8
0
 10
123.234
 20
5.92999
 11
123.234
 21
4.21599
  0
LINE
  8
0
 10
123.234
 20
4.21599
 11
123.695
 21
4.21599
  0
LINE
  8
0
 10
123.695
 20
4.21599
 11
123.695
 21
4.00999
  0
LINE
  8
0
 10
123.695
 20
4.00999
 11
122.509
 21
4.00999
  0
LINE
  8
0
 10
132.634
 20
4.00999
 11
132.634
 21
4.18098
  0
LINE
  8
0
 10
132.634
 20
4.18098
 11
132.683
 21
4.28154
  0
LINE
  8
0
 10
132.683
 20
4.28154
 11
132.739
 21
4.37387
  0
LINE
  8
0
 10
132.739
 20
4.37387
 11
132.802
 21
4.45799
  0
LINE
  8
0
 10
132.802
 20
4.45799
 11
132.869
 21
4.53543
  0
LINE
  8
0
 10
132.869
 20
4.53543
 11
132.939
 21
4.60776
  0
LINE
  8
0
 10
132.939
 20
4.60776
 11
133.01
 21
4.67499
  0
LINE
  8
0
 10
133.01
 20
4.67499
 11
133.083
 21
4.73865
  0
LINE
  8
0
 10
133.083
 20
4.73865
 11
133.155
 21
4.79898
  0
LINE
  8
0
 10
133.155
 20
4.79898
 11
133.296
 21
4.91188
  0
LINE
  8
0
 10
133.296
 20
4.91188
 11
133.36
 21
4.96754
  0
LINE
  8
0
 10
133.36
 20
4.96754
 11
133.42
 21
5.02298
  0
LINE
  8
0
 10
133.42
 20
5.02298
 11
133.474
 21
5.07921
  0
LINE
  8
0
 10
133.474
 20
5.07921
 11
133.52
 21
5.13721
  0
LINE
  8
0
 10
133.52
 20
5.13721
 11
133.559
 21
5.19699
  0
LINE
  8
0
 10
133.559
 20
5.19699
 11
133.589
 21
5.26088
  0
LINE
  8
0
 10
133.589
 20
5.26088
 11
133.607
 21
5.32988
  0
LINE
  8
0
 10
133.607
 20
5.32988
 11
133.613
 21
5.40399
  0
LINE
  8
0
 10
133.613
 20
5.40399
 11
133.603
 21
5.49965
  0
LINE
  8
0
 10
133.603
 20
5.49965
 11
133.572
 21
5.57999
  0
LINE
  8
0
 10
133.572
 20
5.57999
 11
133.521
 21
5.64499
  0
LINE
  8
0
 10
133.521
 20
5.64499
 11
133.452
 21
5.69276
  0
LINE
  8
0
 10
133.452
 20
5.69276
 11
133.367
 21
5.72144
  0
LINE
  8
0
 10
133.367
 20
5.72144
 11
133.266
 21
5.73099
  0
LINE
  8
0
 10
133.266
 20
5.73099
 11
133.169
 21
5.72165
  0
LINE
  8
0
 10
133.169
 20
5.72165
 11
133.083
 21
5.69365
  0
LINE
  8
0
 10
133.083
 20
5.69365
 11
133.01
 21
5.64699
  0
LINE
  8
0
 10
133.01
 20
5.64699
 11
132.953
 21
5.58344
  0
LINE
  8
0
 10
132.953
 20
5.58344
 11
132.913
 21
5.50476
  0
LINE
  8
0
 10
132.913
 20
5.50476
 11
132.892
 21
5.41098
  0
LINE
  8
0
 10
132.892
 20
5.41098
 11
132.645
 21
5.43399
  0
LINE
  8
0
 10
132.645
 20
5.43399
 11
132.679
 21
5.57498
  0
LINE
  8
0
 10
132.679
 20
5.57498
 11
132.743
 21
5.69533
  0
LINE
  8
0
 10
132.743
 20
5.69533
 11
132.838
 21
5.79498
  0
LINE
  8
0
 10
132.838
 20
5.79498
 11
132.96
 21
5.86998
  0
LINE
  8
0
 10
132.96
 20
5.86998
 11
133.103
 21
5.91499
  0
LINE
  8
0
 10
133.103
 20
5.91499
 11
133.266
 21
5.92999
  0
LINE
  8
0
 10
133.266
 20
5.92999
 11
133.443
 21
5.91499
  0
LINE
  8
0
 10
133.443
 20
5.91499
 11
133.59
 21
5.86998
  0
LINE
  8
0
 10
133.59
 20
5.86998
 11
133.707
 21
5.79498
  0
LINE
  8
0
 10
133.707
 20
5.79498
 11
133.793
 21
5.69243
  0
LINE
  8
0
 10
133.793
 20
5.69243
 11
133.845
 21
5.56476
  0
LINE
  8
0
 10
133.845
 20
5.56476
 11
133.862
 21
5.41199
  0
LINE
  8
0
 10
133.862
 20
5.41199
 11
133.856
 21
5.33876
  0
LINE
  8
0
 10
133.856
 20
5.33876
 11
133.839
 21
5.26576
  0
LINE
  8
0
 10
133.839
 20
5.26576
 11
133.811
 21
5.19299
  0
LINE
  8
0
 10
133.811
 20
5.19299
 11
133.772
 21
5.12032
  0
LINE
  8
0
 10
133.772
 20
5.12032
 11
133.722
 21
5.04765
  0
LINE
  8
0
 10
133.722
 20
5.04765
 11
133.661
 21
4.97499
  0
LINE
  8
0
 10
133.661
 20
4.97499
 11
133.574
 21
4.88965
  0
LINE
  8
0
 10
133.574
 20
4.88965
 11
133.447
 21
4.77765
  0
LINE
  8
0
 10
133.447
 20
4.77765
 11
133.183
 21
4.55765
  0
LINE
  8
0
 10
133.183
 20
4.55765
 11
133.1
 21
4.48166
  0
LINE
  8
0
 10
133.1
 20
4.48166
 11
133.032
 21
4.41098
  0
LINE
  8
0
 10
133.032
 20
4.41098
 11
132.977
 21
4.34444
  0
LINE
  8
0
 10
132.977
 20
4.34444
 11
132.933
 21
4.27943
  0
LINE
  8
0
 10
132.933
 20
4.27943
 11
132.9
 21
4.21599
  0
LINE
  8
0
 10
132.9
 20
4.21599
 11
133.892
 21
4.21599
  0
LINE
  8
0
 10
133.892
 20
4.21599
 11
133.892
 21
4.00999
  0
LINE
  8
0
 10
133.892
 20
4.00999
 11
132.634
 21
4.00999
  0
LINE
  8
0
 10
51.959
 20
4.00999
 11
51.959
 21
4.45898
  0
LINE
  8
0
 10
51.959
 20
4.45898
 11
51.063
 21
4.45898
  0
LINE
  8
0
 10
51.063
 20
4.45898
 11
51.063
 21
4.64798
  0
LINE
  8
0
 10
51.063
 20
4.64798
 11
51.933
 21
5.92999
  0
LINE
  8
0
 10
51.933
 20
5.92999
 11
52.188
 21
5.92999
  0
LINE
  8
0
 10
52.188
 20
5.92999
 11
52.188
 21
4.64999
  0
LINE
  8
0
 10
52.188
 20
4.64999
 11
52.454
 21
4.64999
  0
LINE
  8
0
 10
52.454
 20
4.64999
 11
52.454
 21
4.45898
  0
LINE
  8
0
 10
52.454
 20
4.45898
 11
52.188
 21
4.45898
  0
LINE
  8
0
 10
52.188
 20
4.45898
 11
52.188
 21
4.00999
  0
LINE
  8
0
 10
52.188
 20
4.00999
 11
51.959
 21
4.00999
  0
LINE
  8
0
 10
51.959
 20
5.65799
 11
51.8819
 21
5.51843
  0
LINE
  8
0
 10
51.8819
 20
5.51843
 11
51.381
 21
4.77699
  0
LINE
  8
0
 10
51.381
 20
4.77699
 11
51.308
 21
4.67699
  0
LINE
  8
0
 10
51.308
 20
4.67699
 11
51.286
 21
4.64999
  0
LINE
  8
0
 10
51.286
 20
4.64999
 11
51.959
 21
4.64999
  0
LINE
  8
0
 10
51.959
 20
4.64999
 11
51.959
 21
5.65799
  0
LINE
  8
0
 10
191.213
 20
4.00999
 11
191.213
 21
4.21599
  0
LINE
  8
0
 10
191.213
 20
4.21599
 11
191.695
 21
4.21599
  0
LINE
  8
0
 10
191.695
 20
4.21599
 11
191.695
 21
5.69899
  0
LINE
  8
0
 10
191.695
 20
5.69899
 11
191.268
 21
5.41798
  0
LINE
  8
0
 10
191.268
 20
5.41798
 11
191.268
 21
5.64699
  0
LINE
  8
0
 10
191.268
 20
5.64699
 11
191.715
 21
5.92999
  0
LINE
  8
0
 10
191.715
 20
5.92999
 11
191.938
 21
5.92999
  0
LINE
  8
0
 10
191.938
 20
5.92999
 11
191.938
 21
4.21599
  0
LINE
  8
0
 10
191.938
 20
4.21599
 11
192.399
 21
4.21599
  0
LINE
  8
0
 10
192.399
 20
4.21599
 11
192.399
 21
4.00999
  0
LINE
  8
0
 10
192.399
 20
4.00999
 11
191.213
 21
4.00999
  0
LINE
  8
0
 10
182.987
 20
4.00999
 11
183.004
 21
4.25966
  0
LINE
  8
0
 10
183.004
 20
4.25966
 11
183.056
 21
4.51799
  0
LINE
  8
0
 10
183.056
 20
4.51799
 11
183.141
 21
4.78499
  0
LINE
  8
0
 10
183.141
 20
4.78499
 11
183.267
 21
5.07065
  0
LINE
  8
0
 10
183.267
 20
5.07065
 11
183.44
 21
5.38365
  0
LINE
  8
0
 10
183.44
 20
5.38365
 11
183.658
 21
5.72398
  0
LINE
  8
0
 10
183.658
 20
5.72398
 11
182.637
 21
5.72398
  0
LINE
  8
0
 10
182.637
 20
5.72398
 11
182.637
 21
5.92999
  0
LINE
  8
0
 10
182.637
 20
5.92999
 11
183.892
 21
5.92999
  0
LINE
  8
0
 10
183.892
 20
5.92999
 11
183.892
 21
5.73299
  0
LINE
  8
0
 10
183.892
 20
5.73299
 11
183.717
 21
5.45465
  0
LINE
  8
0
 10
183.717
 20
5.45465
 11
183.579
 21
5.21965
  0
LINE
  8
0
 10
183.579
 20
5.21965
 11
183.48
 21
5.02798
  0
LINE
  8
0
 10
183.48
 20
5.02798
 11
183.407
 21
4.85866
  0
LINE
  8
0
 10
183.407
 20
4.85866
 11
183.347
 21
4.69066
  0
LINE
  8
0
 10
183.347
 20
4.69066
 11
183.3
 21
4.52399
  0
LINE
  8
0
 10
183.3
 20
4.52399
 11
183.267
 21
4.35666
  0
LINE
  8
0
 10
183.267
 20
4.35666
 11
183.247
 21
4.18532
  0
LINE
  8
0
 10
183.247
 20
4.18532
 11
183.24
 21
4.00999
  0
LINE
  8
0
 10
183.24
 20
4.00999
 11
182.987
 21
4.00999
  0
LINE
  8
0
 10
41.5903
 20
4.02432
 11
41.4367
 21
4.06732
  0
LINE
  8
0
 10
41.4367
 20
4.06732
 11
41.309
 21
4.13899
  0
LINE
  8
0
 10
41.309
 20
4.13899
 11
41.2099
 21
4.23943
  0
LINE
  8
0
 10
41.2099
 20
4.23943
 11
41.1419
 21
4.36743
  0
LINE
  8
0
 10
41.1419
 20
4.36743
 11
41.105
 21
4.52298
  0
LINE
  8
0
 10
41.105
 20
4.52298
 11
41.355
 21
4.54599
  0
LINE
  8
0
 10
41.355
 20
4.54599
 11
41.4229
 21
4.35931
  0
LINE
  8
0
 10
41.4229
 20
4.35931
 11
41.5612
 21
4.24731
  0
LINE
  8
0
 10
41.5612
 20
4.24731
 11
41.77
 21
4.20999
  0
LINE
  8
0
 10
41.77
 20
4.20999
 11
41.8838
 21
4.21988
  0
LINE
  8
0
 10
41.8838
 20
4.21988
 11
41.9798
 21
4.24954
  0
LINE
  8
0
 10
41.9798
 20
4.24954
 11
42.058
 21
4.29898
  0
LINE
  8
0
 10
42.058
 20
4.29898
 11
42.1163
 21
4.36798
  0
LINE
  8
0
 10
42.1163
 20
4.36798
 11
42.1513
 21
4.45631
  0
LINE
  8
0
 10
42.1513
 20
4.45631
 11
42.163
 21
4.56398
  0
LINE
  8
0
 10
42.163
 20
4.56398
 11
42.1497
 21
4.65843
  0
LINE
  8
0
 10
42.1497
 20
4.65843
 11
42.1097
 21
4.73776
  0
LINE
  8
0
 10
42.1097
 20
4.73776
 11
42.043
 21
4.80199
  0
LINE
  8
0
 10
42.043
 20
4.80199
 11
41.9519
 21
4.84976
  0
LINE
  8
0
 10
41.9519
 20
4.84976
 11
41.8372
 21
4.87843
  0
LINE
  8
0
 10
41.8372
 20
4.87843
 11
41.699
 21
4.88799
  0
LINE
  8
0
 10
41.699
 20
4.88799
 11
41.561
 21
4.88799
  0
LINE
  8
0
 10
41.561
 20
4.88799
 11
41.561
 21
5.09799
  0
LINE
  8
0
 10
41.561
 20
5.09799
 11
41.694
 21
5.09799
  0
LINE
  8
0
 10
41.694
 20
5.09799
 11
41.8173
 21
5.10732
  0
LINE
  8
0
 10
41.8173
 20
5.10732
 11
41.9207
 21
5.13531
  0
LINE
  8
0
 10
41.9207
 20
5.13531
 11
42.004
 21
5.18199
  0
LINE
  8
0
 10
42.004
 20
5.18199
 11
42.0651
 21
5.2451
  0
LINE
  8
0
 10
42.0651
 20
5.2451
 11
42.1018
 21
5.32243
  0
LINE
  8
0
 10
42.1018
 20
5.32243
 11
42.114
 21
5.41399
  0
LINE
  8
0
 10
42.114
 20
5.41399
 11
42.104
 21
5.5051
  0
LINE
  8
0
 10
42.104
 20
5.5051
 11
42.074
 21
5.58243
  0
LINE
  8
0
 10
42.074
 20
5.58243
 11
42.024
 21
5.64598
  0
LINE
  8
0
 10
42.024
 20
5.64598
 11
41.9543
 21
5.69321
  0
LINE
  8
0
 10
41.9543
 20
5.69321
 11
41.8653
 21
5.72154
  0
LINE
  8
0
 10
41.8653
 20
5.72154
 11
41.757
 21
5.73099
  0
LINE
  8
0
 10
41.757
 20
5.73099
 11
41.6564
 21
5.72188
  0
LINE
  8
0
 10
41.6564
 20
5.72188
 11
41.5694
 21
5.69455
  0
LINE
  8
0
 10
41.5694
 20
5.69455
 11
41.496
 21
5.64899
  0
LINE
  8
0
 10
41.496
 20
5.64899
 11
41.4392
 21
5.58687
  0
LINE
  8
0
 10
41.4392
 20
5.58687
 11
41.4009
 21
5.50987
  0
LINE
  8
0
 10
41.4009
 20
5.50987
 11
41.381
 21
5.41798
  0
LINE
  8
0
 10
41.381
 20
5.41798
 11
41.138
 21
5.43698
  0
LINE
  8
0
 10
41.138
 20
5.43698
 11
41.1714
 21
5.58032
  0
LINE
  8
0
 10
41.1714
 20
5.58032
 11
41.2358
 21
5.70099
  0
LINE
  8
0
 10
41.2358
 20
5.70099
 11
41.331
 21
5.79898
  0
LINE
  8
0
 10
41.331
 20
5.79898
 11
41.4528
 21
5.87177
  0
LINE
  8
0
 10
41.4528
 20
5.87177
 11
41.5954
 21
5.91544
  0
LINE
  8
0
 10
41.5954
 20
5.91544
 11
41.759
 21
5.92999
  0
LINE
  8
0
 10
41.759
 20
5.92999
 11
41.9354
 21
5.91554
  0
LINE
  8
0
 10
41.9354
 20
5.91554
 11
42.0834
 21
5.87221
  0
LINE
  8
0
 10
42.0834
 20
5.87221
 11
42.203
 21
5.79999
  0
LINE
  8
0
 10
42.203
 20
5.79999
 11
42.2913
 21
5.70265
  0
LINE
  8
0
 10
42.2913
 20
5.70265
 11
42.3443
 21
5.58266
  0
LINE
  8
0
 10
42.3443
 20
5.58266
 11
42.362
 21
5.43999
  0
LINE
  8
0
 10
42.362
 20
5.43999
 11
42.3507
 21
5.32877
  0
LINE
  8
0
 10
42.3507
 20
5.32877
 11
42.3167
 21
5.23244
  0
LINE
  8
0
 10
42.3167
 20
5.23244
 11
42.26
 21
5.15099
  0
LINE
  8
0
 10
42.26
 20
5.15099
 11
42.1818
 21
5.08499
  0
LINE
  8
0
 10
42.1818
 20
5.08499
 11
42.0831
 21
5.03499
  0
LINE
  8
0
 10
42.0831
 20
5.03499
 11
41.964
 21
5.00099
  0
LINE
  8
0
 10
41.964
 20
5.00099
 11
41.964
 21
4.99599
  0
LINE
  8
0
 10
41.964
 20
4.99599
 11
42.0956
 21
4.96999
  0
LINE
  8
0
 10
42.0956
 20
4.96999
 11
42.2062
 21
4.92265
  0
LINE
  8
0
 10
42.2062
 20
4.92265
 11
42.296
 21
4.85399
  0
LINE
  8
0
 10
42.296
 20
4.85399
 11
42.3621
 21
4.76843
  0
LINE
  8
0
 10
42.3621
 20
4.76843
 11
42.4018
 21
4.6691
  0
LINE
  8
0
 10
42.4018
 20
4.6691
 11
42.415
 21
4.55598
  0
LINE
  8
0
 10
42.415
 20
4.55598
 11
42.3963
 21
4.3951
  0
LINE
  8
0
 10
42.3963
 20
4.3951
 11
42.3403
 21
4.26044
  0
LINE
  8
0
 10
42.3403
 20
4.26044
 11
42.247
 21
4.15199
  0
LINE
  8
0
 10
42.247
 20
4.15199
 11
42.1198
 21
4.0731
  0
LINE
  8
0
 10
42.1198
 20
4.0731
 11
41.9608
 21
4.02577
  0
LINE
  8
0
 10
41.9608
 20
4.02577
 11
41.77
 21
4.00999
  0
LINE
  8
0
 10
41.77
 20
4.00999
 11
41.5903
 21
4.02432
  0
LINE
  8
0
 10
131.213
 20
4.00999
 11
131.213
 21
4.21599
  0
LINE
  8
0
 10
131.213
 20
4.21599
 11
131.695
 21
4.21599
  0
LINE
  8
0
 10
131.695
 20
4.21599
 11
131.695
 21
5.69899
  0
LINE
  8
0
 10
131.695
 20
5.69899
 11
131.268
 21
5.41798
  0
LINE
  8
0
 10
131.268
 20
5.41798
 11
131.268
 21
5.64699
  0
LINE
  8
0
 10
131.268
 20
5.64699
 11
131.715
 21
5.92999
  0
LINE
  8
0
 10
131.715
 20
5.92999
 11
131.938
 21
5.92999
  0
LINE
  8
0
 10
131.938
 20
5.92999
 11
131.938
 21
4.21599
  0
LINE
  8
0
 10
131.938
 20
4.21599
 11
132.399
 21
4.21599
  0
LINE
  8
0
 10
132.399
 20
4.21599
 11
132.399
 21
4.00999
  0
LINE
  8
0
 10
132.399
 20
4.00999
 11
131.213
 21
4.00999
  0
LINE
  8
0
 10
91.5804
 20
4.02554
 11
91.4214
 21
4.0722
  0
LINE
  8
0
 10
91.4214
 20
4.0722
 11
91.292
 21
4.14999
  0
LINE
  8
0
 10
91.292
 20
4.14999
 11
91.1964
 21
4.25642
  0
LINE
  8
0
 10
91.1964
 20
4.25642
 11
91.1391
 21
4.3891
  0
LINE
  8
0
 10
91.1391
 20
4.3891
 11
91.12
 21
4.54799
  0
LINE
  8
0
 10
91.12
 20
4.54799
 11
91.1318
 21
4.66222
  0
LINE
  8
0
 10
91.1318
 20
4.66222
 11
91.1671
 21
4.76355
  0
LINE
  8
0
 10
91.1671
 20
4.76355
 11
91.226
 21
4.85199
  0
LINE
  8
0
 10
91.226
 20
4.85199
 11
91.3039
 21
4.9232
  0
LINE
  8
0
 10
91.3039
 20
4.9232
 11
91.3949
 21
4.97287
  0
LINE
  8
0
 10
91.3949
 20
4.97287
 11
91.499
 21
5.00099
  0
LINE
  8
0
 10
91.499
 20
5.00099
 11
91.499
 21
5.00598
  0
LINE
  8
0
 10
91.499
 20
5.00598
 11
91.4029
 21
5.03987
  0
LINE
  8
0
 10
91.4029
 20
5.03987
 11
91.3212
 21
5.09221
  0
LINE
  8
0
 10
91.3212
 20
5.09221
 11
91.254
 21
5.16299
  0
LINE
  8
0
 10
91.254
 20
5.16299
 11
91.2045
 21
5.24821
  0
LINE
  8
0
 10
91.2045
 20
5.24821
 11
91.1749
 21
5.34254
  0
LINE
  8
0
 10
91.1749
 20
5.34254
 11
91.165
 21
5.44598
  0
LINE
  8
0
 10
91.165
 20
5.44598
 11
91.183
 21
5.58087
  0
LINE
  8
0
 10
91.183
 20
5.58087
 11
91.237
 21
5.69754
  0
LINE
  8
0
 10
91.237
 20
5.69754
 11
91.327
 21
5.79599
  0
LINE
  8
0
 10
91.327
 20
5.79599
 11
91.448
 21
5.87044
  0
LINE
  8
0
 10
91.448
 20
5.87044
 11
91.5937
 21
5.9151
  0
LINE
  8
0
 10
91.5937
 20
5.9151
 11
91.764
 21
5.92999
  0
LINE
  8
0
 10
91.764
 20
5.92999
 11
91.9375
 21
5.91544
  0
LINE
  8
0
 10
91.9375
 20
5.91544
 11
92.0849
 21
5.87177
  0
LINE
  8
0
 10
92.0849
 20
5.87177
 11
92.206
 21
5.79898
  0
LINE
  8
0
 10
92.206
 20
5.79898
 11
92.2966
 21
5.70132
  0
LINE
  8
0
 10
92.2966
 20
5.70132
 11
92.3509
 21
5.58299
  0
LINE
  8
0
 10
92.3509
 20
5.58299
 11
92.369
 21
5.44398
  0
LINE
  8
0
 10
92.369
 20
5.44398
 11
92.3589
 21
5.34055
  0
LINE
  8
0
 10
92.3589
 20
5.34055
 11
92.3286
 21
5.24622
  0
LINE
  8
0
 10
92.3286
 20
5.24622
 11
92.278
 21
5.16098
  0
LINE
  8
0
 10
92.278
 20
5.16098
 11
92.2107
 21
5.09088
  0
LINE
  8
0
 10
92.2107
 20
5.09088
 11
92.1287
 21
5.04054
  0
LINE
  8
0
 10
92.1287
 20
5.04054
 11
92.032
 21
5.00999
  0
LINE
  8
0
 10
92.032
 20
5.00999
 11
92.032
 21
5.00499
  0
LINE
  8
0
 10
92.032
 20
5.00499
 11
92.1443
 21
4.97533
  0
LINE
  8
0
 10
92.1443
 20
4.97533
 11
92.2387
 21
4.92499
  0
LINE
  8
0
 10
92.2387
 20
4.92499
 11
92.315
 21
4.85399
  0
LINE
  8
0
 10
92.315
 20
4.85399
 11
92.3711
 21
4.76654
  0
LINE
  8
0
 10
92.3711
 20
4.76654
 11
92.4048
 21
4.66554
  0
LINE
  8
0
 10
92.4048
 20
4.66554
 11
92.416
 21
4.55098
  0
LINE
  8
0
 10
92.416
 20
4.55098
 11
92.3974
 21
4.39343
  0
LINE
  8
0
 10
92.3974
 20
4.39343
 11
92.3418
 21
4.26076
  0
LINE
  8
0
 10
92.3418
 20
4.26076
 11
92.249
 21
4.15298
  0
LINE
  8
0
 10
92.249
 20
4.15298
 11
92.1214
 21
4.07355
  0
LINE
  8
0
 10
92.1214
 20
4.07355
 11
91.9614
 21
4.02588
  0
LINE
  8
0
 10
91.9614
 20
4.02588
 11
91.769
 21
4.00999
  0
LINE
  8
0
 10
91.769
 20
4.00999
 11
91.5804
 21
4.02554
  0
LINE
  8
0
 10
91.8716
 20
5.10666
 11
91.9589
 21
5.13266
  0
LINE
  8
0
 10
91.9589
 20
5.13266
 11
92.028
 21
5.17598
  0
LINE
  8
0
 10
92.028
 20
5.17598
 11
92.078
 21
5.23932
  0
LINE
  8
0
 10
92.078
 20
5.23932
 11
92.108
 21
5.32399
  0
LINE
  8
0
 10
92.108
 20
5.32399
 11
92.118
 21
5.42999
  0
LINE
  8
0
 10
92.118
 20
5.42999
 11
92.0787
 21
5.60776
  0
LINE
  8
0
 10
92.0787
 20
5.60776
 11
91.9607
 21
5.71443
  0
LINE
  8
0
 10
91.9607
 20
5.71443
 11
91.764
 21
5.74998
  0
LINE
  8
0
 10
91.764
 20
5.74998
 11
91.6584
 21
5.74098
  0
LINE
  8
0
 10
91.6584
 20
5.74098
 11
91.5711
 21
5.71399
  0
LINE
  8
0
 10
91.5711
 20
5.71399
 11
91.502
 21
5.66899
  0
LINE
  8
0
 10
91.502
 20
5.66899
 11
91.452
 21
5.60687
  0
LINE
  8
0
 10
91.452
 20
5.60687
 11
91.422
 21
5.52721
  0
LINE
  8
0
 10
91.422
 20
5.52721
 11
91.412
 21
5.42999
  0
LINE
  8
0
 10
91.412
 20
5.42999
 11
91.4222
 21
5.33054
  0
LINE
  8
0
 10
91.4222
 20
5.33054
 11
91.4529
 21
5.24821
  0
LINE
  8
0
 10
91.4529
 20
5.24821
 11
91.504
 21
5.18298
  0
LINE
  8
0
 10
91.504
 20
5.18298
 11
91.5744
 21
5.13576
  0
LINE
  8
0
 10
91.5744
 20
5.13576
 11
91.6618
 21
5.10744
  0
LINE
  8
0
 10
91.6618
 20
5.10744
 11
91.766
 21
5.09799
  0
LINE
  8
0
 10
91.766
 20
5.09799
 11
91.8716
 21
5.10666
  0
LINE
  8
0
 10
91.8928
 20
4.2011
 11
91.9911
 21
4.23143
  0
LINE
  8
0
 10
91.9911
 20
4.23143
 11
92.067
 21
4.28198
  0
LINE
  8
0
 10
92.067
 20
4.28198
 11
92.1214
 21
4.35532
  0
LINE
  8
0
 10
92.1214
 20
4.35532
 11
92.1541
 21
4.45265
  0
LINE
  8
0
 10
92.1541
 20
4.45265
 11
92.165
 21
4.57399
  0
LINE
  8
0
 10
92.165
 20
4.57399
 11
92.1532
 21
4.67799
  0
LINE
  8
0
 10
92.1532
 20
4.67799
 11
92.1179
 21
4.76332
  0
LINE
  8
0
 10
92.1179
 20
4.76332
 11
92.059
 21
4.82999
  0
LINE
  8
0
 10
92.059
 20
4.82999
 11
91.9794
 21
4.87833
  0
LINE
  8
0
 10
91.9794
 20
4.87833
 11
91.8808
 21
4.90732
  0
LINE
  8
0
 10
91.8808
 20
4.90732
 11
91.763
 21
4.91699
  0
LINE
  8
0
 10
91.763
 20
4.91699
 11
91.6487
 21
4.90665
  0
LINE
  8
0
 10
91.6487
 20
4.90665
 11
91.5523
 21
4.87566
  0
LINE
  8
0
 10
91.5523
 20
4.87566
 11
91.474
 21
4.82399
  0
LINE
  8
0
 10
91.474
 20
4.82399
 11
91.4162
 21
4.75432
  0
LINE
  8
0
 10
91.4162
 20
4.75432
 11
91.3815
 21
4.66933
  0
LINE
  8
0
 10
91.3815
 20
4.66933
 11
91.37
 21
4.56898
  0
LINE
  8
0
 10
91.37
 20
4.56898
 11
91.4147
 21
4.35899
  0
LINE
  8
0
 10
91.4147
 20
4.35899
 11
91.5487
 21
4.23299
  0
LINE
  8
0
 10
91.5487
 20
4.23299
 11
91.772
 21
4.19099
  0
LINE
  8
0
 10
91.772
 20
4.19099
 11
91.8928
 21
4.2011
  0
LINE
  8
0
 10
153.454
 20
4.00999
 11
153.454
 21
4.45898
  0
LINE
  8
0
 10
153.454
 20
4.45898
 11
152.558
 21
4.45898
  0
LINE
  8
0
 10
152.558
 20
4.45898
 11
152.558
 21
4.64798
  0
LINE
  8
0
 10
152.558
 20
4.64798
 11
153.428
 21
5.92999
  0
LINE
  8
0
 10
153.428
 20
5.92999
 11
153.683
 21
5.92999
  0
LINE
  8
0
 10
153.683
 20
5.92999
 11
153.683
 21
4.64999
  0
LINE
  8
0
 10
153.683
 20
4.64999
 11
153.949
 21
4.64999
  0
LINE
  8
0
 10
153.949
 20
4.64999
 11
153.949
 21
4.45898
  0
LINE
  8
0
 10
153.949
 20
4.45898
 11
153.683
 21
4.45898
  0
LINE
  8
0
 10
153.683
 20
4.45898
 11
153.683
 21
4.00999
  0
LINE
  8
0
 10
153.683
 20
4.00999
 11
153.454
 21
4.00999
  0
LINE
  8
0
 10
153.454
 20
5.65799
 11
153.377
 21
5.51843
  0
LINE
  8
0
 10
153.377
 20
5.51843
 11
152.876
 21
4.77699
  0
LINE
  8
0
 10
152.876
 20
4.77699
 11
152.803
 21
4.67699
  0
LINE
  8
0
 10
152.803
 20
4.67699
 11
152.781
 21
4.64999
  0
LINE
  8
0
 10
152.781
 20
4.64999
 11
153.454
 21
4.64999
  0
LINE
  8
0
 10
153.454
 20
4.64999
 11
153.454
 21
5.65799
  0
LINE
  8
0
 10
101.579
 20
4.02032
 11
101.46
 21
4.05132
  0
LINE
  8
0
 10
101.46
 20
4.05132
 11
101.361
 21
4.10298
  0
LINE
  8
0
 10
101.361
 20
4.10298
 11
101.28
 21
4.17831
  0
LINE
  8
0
 10
101.28
 20
4.17831
 11
101.216
 21
4.27899
  0
LINE
  8
0
 10
101.216
 20
4.27899
 11
101.169
 21
4.40498
  0
LINE
  8
0
 10
101.169
 20
4.40498
 11
101.4
 21
4.44099
  0
LINE
  8
0
 10
101.4
 20
4.44099
 11
101.468
 21
4.30988
  0
LINE
  8
0
 10
101.468
 20
4.30988
 11
101.576
 21
4.23122
  0
LINE
  8
0
 10
101.576
 20
4.23122
 11
101.722
 21
4.20499
  0
LINE
  8
0
 10
101.722
 20
4.20499
 11
101.851
 21
4.22554
  0
LINE
  8
0
 10
101.851
 20
4.22554
 11
101.959
 21
4.28722
  0
LINE
  8
0
 10
101.959
 20
4.28722
 11
102.046
 21
4.38998
  0
LINE
  8
0
 10
102.046
 20
4.38998
 11
102.11
 21
4.53087
  0
LINE
  8
0
 10
102.11
 20
4.53087
 11
102.15
 21
4.70688
  0
LINE
  8
0
 10
102.15
 20
4.70688
 11
102.166
 21
4.91798
  0
LINE
  8
0
 10
102.166
 20
4.91798
 11
102.121
 21
4.84254
  0
LINE
  8
0
 10
102.121
 20
4.84254
 11
102.06
 21
4.77754
  0
LINE
  8
0
 10
102.06
 20
4.77754
 11
101.981
 21
4.72299
  0
LINE
  8
0
 10
101.981
 20
4.72299
 11
101.891
 21
4.68243
  0
LINE
  8
0
 10
101.891
 20
4.68243
 11
101.795
 21
4.6581
  0
LINE
  8
0
 10
101.795
 20
4.6581
 11
101.693
 21
4.64999
  0
LINE
  8
0
 10
101.693
 20
4.64999
 11
101.534
 21
4.66943
  0
LINE
  8
0
 10
101.534
 20
4.66943
 11
101.397
 21
4.72777
  0
LINE
  8
0
 10
101.397
 20
4.72777
 11
101.283
 21
4.82498
  0
LINE
  8
0
 10
101.283
 20
4.82498
 11
101.197
 21
4.95499
  0
LINE
  8
0
 10
101.197
 20
4.95499
 11
101.146
 21
5.11032
  0
LINE
  8
0
 10
101.146
 20
5.11032
 11
101.129
 21
5.29099
  0
LINE
  8
0
 10
101.129
 20
5.29099
 11
101.148
 21
5.47543
  0
LINE
  8
0
 10
101.148
 20
5.47543
 11
101.203
 21
5.63142
  0
LINE
  8
0
 10
101.203
 20
5.63142
 11
101.296
 21
5.75899
  0
LINE
  8
0
 10
101.296
 20
5.75899
 11
101.422
 21
5.85399
  0
LINE
  8
0
 10
101.422
 20
5.85399
 11
101.578
 21
5.91098
  0
LINE
  8
0
 10
101.578
 20
5.91098
 11
101.762
 21
5.92999
  0
LINE
  8
0
 10
101.762
 20
5.92999
 11
101.956
 21
5.90433
  0
LINE
  8
0
 10
101.956
 20
5.90433
 11
102.116
 21
5.82732
  0
LINE
  8
0
 10
102.116
 20
5.82732
 11
102.242
 21
5.69899
  0
LINE
  8
0
 10
102.242
 20
5.69899
 11
102.333
 21
5.51988
  0
LINE
  8
0
 10
102.333
 20
5.51988
 11
102.387
 21
5.28922
  0
LINE
  8
0
 10
102.387
 20
5.28922
 11
102.405
 21
5.00699
  0
LINE
  8
0
 10
102.405
 20
5.00699
 11
102.385
 21
4.71111
  0
LINE
  8
0
 10
102.385
 20
4.71111
 11
102.325
 21
4.46477
  0
LINE
  8
0
 10
102.325
 20
4.46477
 11
102.226
 21
4.26799
  0
LINE
  8
0
 10
102.226
 20
4.26799
 11
102.09
 21
4.12465
  0
LINE
  8
0
 10
102.09
 20
4.12465
 11
101.921
 21
4.03865
  0
LINE
  8
0
 10
101.921
 20
4.03865
 11
101.718
 21
4.00999
  0
LINE
  8
0
 10
101.718
 20
4.00999
 11
101.579
 21
4.02032
  0
LINE
  8
0
 10
101.82
 20
4.84631
 11
101.885
 21
4.86232
  0
LINE
  8
0
 10
101.885
 20
4.86232
 11
101.947
 21
4.88899
  0
LINE
  8
0
 10
101.947
 20
4.88899
 11
102.003
 21
4.92543
  0
LINE
  8
0
 10
102.003
 20
4.92543
 11
102.051
 21
4.97076
  0
LINE
  8
0
 10
102.051
 20
4.97076
 11
102.09
 21
5.02499
  0
LINE
  8
0
 10
102.09
 20
5.02499
 11
102.119
 21
5.08632
  0
LINE
  8
0
 10
102.119
 20
5.08632
 11
102.136
 21
5.15298
  0
LINE
  8
0
 10
102.136
 20
5.15298
 11
102.142
 21
5.22499
  0
LINE
  8
0
 10
102.142
 20
5.22499
 11
102.13
 21
5.36777
  0
LINE
  8
0
 10
102.13
 20
5.36777
 11
102.095
 21
5.49077
  0
LINE
  8
0
 10
102.095
 20
5.49077
 11
102.036
 21
5.59399
  0
LINE
  8
0
 10
102.036
 20
5.59399
 11
101.958
 21
5.67177
  0
LINE
  8
0
 10
101.958
 20
5.67177
 11
101.864
 21
5.71843
  0
LINE
  8
0
 10
101.864
 20
5.71843
 11
101.754
 21
5.73399
  0
LINE
  8
0
 10
101.754
 20
5.73399
 11
101.645
 21
5.72066
  0
LINE
  8
0
 10
101.645
 20
5.72066
 11
101.552
 21
5.68065
  0
LINE
  8
0
 10
101.552
 20
5.68065
 11
101.476
 21
5.61398
  0
LINE
  8
0
 10
101.476
 20
5.61398
 11
101.42
 21
5.52521
  0
LINE
  8
0
 10
101.42
 20
5.52521
 11
101.386
 21
5.41754
  0
LINE
  8
0
 10
101.386
 20
5.41754
 11
101.375
 21
5.29099
  0
LINE
  8
0
 10
101.375
 20
5.29099
 11
101.386
 21
5.16199
  0
LINE
  8
0
 10
101.386
 20
5.16199
 11
101.42
 21
5.05232
  0
LINE
  8
0
 10
101.42
 20
5.05232
 11
101.476
 21
4.96199
  0
LINE
  8
0
 10
101.476
 20
4.96199
 11
101.552
 21
4.89476
  0
LINE
  8
0
 10
101.552
 20
4.89476
 11
101.644
 21
4.85443
  0
LINE
  8
0
 10
101.644
 20
4.85443
 11
101.751
 21
4.84099
  0
LINE
  8
0
 10
101.751
 20
4.84099
 11
101.82
 21
4.84631
  0
LINE
  8
0
 10
193.076
 20
4.02554
 11
192.917
 21
4.0722
  0
LINE
  8
0
 10
192.917
 20
4.0722
 11
192.787
 21
4.14999
  0
LINE
  8
0
 10
192.787
 20
4.14999
 11
192.692
 21
4.25642
  0
LINE
  8
0
 10
192.692
 20
4.25642
 11
192.634
 21
4.3891
  0
LINE
  8
0
 10
192.634
 20
4.3891
 11
192.615
 21
4.54799
  0
LINE
  8
0
 10
192.615
 20
4.54799
 11
192.627
 21
4.66222
  0
LINE
  8
0
 10
192.627
 20
4.66222
 11
192.662
 21
4.76355
  0
LINE
  8
0
 10
192.662
 20
4.76355
 11
192.721
 21
4.85199
  0
LINE
  8
0
 10
192.721
 20
4.85199
 11
192.799
 21
4.9232
  0
LINE
  8
0
 10
192.799
 20
4.9232
 11
192.89
 21
4.97287
  0
LINE
  8
0
 10
192.89
 20
4.97287
 11
192.994
 21
5.00099
  0
LINE
  8
0
 10
192.994
 20
5.00099
 11
192.994
 21
5.00598
  0
LINE
  8
0
 10
192.994
 20
5.00598
 11
192.898
 21
5.03987
  0
LINE
  8
0
 10
192.898
 20
5.03987
 11
192.816
 21
5.09221
  0
LINE
  8
0
 10
192.816
 20
5.09221
 11
192.749
 21
5.16299
  0
LINE
  8
0
 10
192.749
 20
5.16299
 11
192.7
 21
5.24821
  0
LINE
  8
0
 10
192.7
 20
5.24821
 11
192.67
 21
5.34254
  0
LINE
  8
0
 10
192.67
 20
5.34254
 11
192.66
 21
5.44598
  0
LINE
  8
0
 10
192.66
 20
5.44598
 11
192.678
 21
5.58087
  0
LINE
  8
0
 10
192.678
 20
5.58087
 11
192.732
 21
5.69754
  0
LINE
  8
0
 10
192.732
 20
5.69754
 11
192.822
 21
5.79599
  0
LINE
  8
0
 10
192.822
 20
5.79599
 11
192.943
 21
5.87044
  0
LINE
  8
0
 10
192.943
 20
5.87044
 11
193.089
 21
5.9151
  0
LINE
  8
0
 10
193.089
 20
5.9151
 11
193.259
 21
5.92999
  0
LINE
  8
0
 10
193.259
 20
5.92999
 11
193.433
 21
5.91544
  0
LINE
  8
0
 10
193.433
 20
5.91544
 11
193.58
 21
5.87177
  0
LINE
  8
0
 10
193.58
 20
5.87177
 11
193.701
 21
5.79898
  0
LINE
  8
0
 10
193.701
 20
5.79898
 11
193.792
 21
5.70132
  0
LINE
  8
0
 10
193.792
 20
5.70132
 11
193.846
 21
5.58299
  0
LINE
  8
0
 10
193.846
 20
5.58299
 11
193.864
 21
5.44398
  0
LINE
  8
0
 10
193.864
 20
5.44398
 11
193.854
 21
5.34055
  0
LINE
  8
0
 10
193.854
 20
5.34055
 11
193.824
 21
5.24622
  0
LINE
  8
0
 10
193.824
 20
5.24622
 11
193.773
 21
5.16098
  0
LINE
  8
0
 10
193.773
 20
5.16098
 11
193.706
 21
5.09088
  0
LINE
  8
0
 10
193.706
 20
5.09088
 11
193.624
 21
5.04054
  0
LINE
  8
0
 10
193.624
 20
5.04054
 11
193.527
 21
5.00999
  0
LINE
  8
0
 10
193.527
 20
5.00999
 11
193.527
 21
5.00499
  0
LINE
  8
0
 10
193.527
 20
5.00499
 11
193.639
 21
4.97533
  0
LINE
  8
0
 10
193.639
 20
4.97533
 11
193.734
 21
4.92499
  0
LINE
  8
0
 10
193.734
 20
4.92499
 11
193.81
 21
4.85399
  0
LINE
  8
0
 10
193.81
 20
4.85399
 11
193.866
 21
4.76654
  0
LINE
  8
0
 10
193.866
 20
4.76654
 11
193.9
 21
4.66554
  0
LINE
  8
0
 10
193.9
 20
4.66554
 11
193.911
 21
4.55098
  0
LINE
  8
0
 10
193.911
 20
4.55098
 11
193.893
 21
4.39343
  0
LINE
  8
0
 10
193.893
 20
4.39343
 11
193.837
 21
4.26076
  0
LINE
  8
0
 10
193.837
 20
4.26076
 11
193.744
 21
4.15298
  0
LINE
  8
0
 10
193.744
 20
4.15298
 11
193.617
 21
4.07355
  0
LINE
  8
0
 10
193.617
 20
4.07355
 11
193.457
 21
4.02588
  0
LINE
  8
0
 10
193.457
 20
4.02588
 11
193.264
 21
4.00999
  0
LINE
  8
0
 10
193.264
 20
4.00999
 11
193.076
 21
4.02554
  0
LINE
  8
0
 10
193.367
 20
5.10666
 11
193.454
 21
5.13266
  0
LINE
  8
0
 10
193.454
 20
5.13266
 11
193.523
 21
5.17598
  0
LINE
  8
0
 10
193.523
 20
5.17598
 11
193.573
 21
5.23932
  0
LINE
  8
0
 10
193.573
 20
5.23932
 11
193.603
 21
5.32399
  0
LINE
  8
0
 10
193.603
 20
5.32399
 11
193.613
 21
5.42999
  0
LINE
  8
0
 10
193.613
 20
5.42999
 11
193.574
 21
5.60776
  0
LINE
  8
0
 10
193.574
 20
5.60776
 11
193.456
 21
5.71443
  0
LINE
  8
0
 10
193.456
 20
5.71443
 11
193.259
 21
5.74998
  0
LINE
  8
0
 10
193.259
 20
5.74998
 11
193.154
 21
5.74098
  0
LINE
  8
0
 10
193.154
 20
5.74098
 11
193.066
 21
5.71399
  0
LINE
  8
0
 10
193.066
 20
5.71399
 11
192.997
 21
5.66899
  0
LINE
  8
0
 10
192.997
 20
5.66899
 11
192.947
 21
5.60687
  0
LINE
  8
0
 10
192.947
 20
5.60687
 11
192.917
 21
5.52721
  0
LINE
  8
0
 10
192.917
 20
5.52721
 11
192.907
 21
5.42999
  0
LINE
  8
0
 10
192.907
 20
5.42999
 11
192.917
 21
5.33054
  0
LINE
  8
0
 10
192.917
 20
5.33054
 11
192.948
 21
5.24821
  0
LINE
  8
0
 10
192.948
 20
5.24821
 11
192.999
 21
5.18298
  0
LINE
  8
0
 10
192.999
 20
5.18298
 11
193.07
 21
5.13576
  0
LINE
  8
0
 10
193.07
 20
5.13576
 11
193.157
 21
5.10744
  0
LINE
  8
0
 10
193.157
 20
5.10744
 11
193.261
 21
5.09799
  0
LINE
  8
0
 10
193.261
 20
5.09799
 11
193.367
 21
5.10666
  0
LINE
  8
0
 10
193.388
 20
4.2011
 11
193.486
 21
4.23143
  0
LINE
  8
0
 10
193.486
 20
4.23143
 11
193.562
 21
4.28198
  0
LINE
  8
0
 10
193.562
 20
4.28198
 11
193.617
 21
4.35532
  0
LINE
  8
0
 10
193.617
 20
4.35532
 11
193.649
 21
4.45265
  0
LINE
  8
0
 10
193.649
 20
4.45265
 11
193.66
 21
4.57399
  0
LINE
  8
0
 10
193.66
 20
4.57399
 11
193.648
 21
4.67799
  0
LINE
  8
0
 10
193.648
 20
4.67799
 11
193.613
 21
4.76332
  0
LINE
  8
0
 10
193.613
 20
4.76332
 11
193.554
 21
4.82999
  0
LINE
  8
0
 10
193.554
 20
4.82999
 11
193.475
 21
4.87833
  0
LINE
  8
0
 10
193.475
 20
4.87833
 11
193.376
 21
4.90732
  0
LINE
  8
0
 10
193.376
 20
4.90732
 11
193.258
 21
4.91699
  0
LINE
  8
0
 10
193.258
 20
4.91699
 11
193.144
 21
4.90665
  0
LINE
  8
0
 10
193.144
 20
4.90665
 11
193.047
 21
4.87566
  0
LINE
  8
0
 10
193.047
 20
4.87566
 11
192.969
 21
4.82399
  0
LINE
  8
0
 10
192.969
 20
4.82399
 11
192.911
 21
4.75432
  0
LINE
  8
0
 10
192.911
 20
4.75432
 11
192.877
 21
4.66933
  0
LINE
  8
0
 10
192.877
 20
4.66933
 11
192.865
 21
4.56898
  0
LINE
  8
0
 10
192.865
 20
4.56898
 11
192.91
 21
4.35899
  0
LINE
  8
0
 10
192.91
 20
4.35899
 11
193.044
 21
4.23299
  0
LINE
  8
0
 10
193.044
 20
4.23299
 11
193.267
 21
4.19099
  0
LINE
  8
0
 10
193.267
 20
4.19099
 11
193.388
 21
4.2011
  0
LINE
  8
0
 10
21.213
 20
4.00999
 11
21.213
 21
4.21599
  0
LINE
  8
0
 10
21.213
 20
4.21599
 11
21.695
 21
4.21599
  0
LINE
  8
0
 10
21.695
 20
4.21599
 11
21.695
 21
5.69899
  0
LINE
  8
0
 10
21.695
 20
5.69899
 11
21.268
 21
5.41798
  0
LINE
  8
0
 10
21.268
 20
5.41798
 11
21.268
 21
5.64699
  0
LINE
  8
0
 10
21.268
 20
5.64699
 11
21.715
 21
5.92999
  0
LINE
  8
0
 10
21.715
 20
5.92999
 11
21.938
 21
5.92999
  0
LINE
  8
0
 10
21.938
 20
5.92999
 11
21.938
 21
4.21599
  0
LINE
  8
0
 10
21.938
 20
4.21599
 11
22.399
 21
4.21599
  0
LINE
  8
0
 10
22.399
 20
4.21599
 11
22.399
 21
4.00999
  0
LINE
  8
0
 10
22.399
 20
4.00999
 11
21.213
 21
4.00999
  0
LINE
  8
0
 10
173.099
 20
4.03598
 11
172.935
 21
4.11398
  0
LINE
  8
0
 10
172.935
 20
4.11398
 11
172.805
 21
4.24399
  0
LINE
  8
0
 10
172.805
 20
4.24399
 11
172.711
 21
4.42421
  0
LINE
  8
0
 10
172.711
 20
4.42421
 11
172.654
 21
4.65154
  0
LINE
  8
0
 10
172.654
 20
4.65154
 11
172.635
 21
4.92598
  0
LINE
  8
0
 10
172.635
 20
4.92598
 11
172.655
 21
5.22421
  0
LINE
  8
0
 10
172.655
 20
5.22421
 11
172.713
 21
5.47221
  0
LINE
  8
0
 10
172.713
 20
5.47221
 11
172.811
 21
5.66998
  0
LINE
  8
0
 10
172.811
 20
5.66998
 11
172.946
 21
5.81444
  0
LINE
  8
0
 10
172.946
 20
5.81444
 11
173.114
 21
5.90109
  0
LINE
  8
0
 10
173.114
 20
5.90109
 11
173.315
 21
5.92999
  0
LINE
  8
0
 10
173.315
 20
5.92999
 11
173.566
 21
5.8871
  0
LINE
  8
0
 10
173.566
 20
5.8871
 11
173.747
 21
5.75844
  0
LINE
  8
0
 10
173.747
 20
5.75844
 11
173.857
 21
5.54399
  0
LINE
  8
0
 10
173.857
 20
5.54399
 11
173.626
 21
5.50198
  0
LINE
  8
0
 10
173.626
 20
5.50198
 11
173.559
 21
5.63087
  0
LINE
  8
0
 10
173.559
 20
5.63087
 11
173.455
 21
5.70821
  0
LINE
  8
0
 10
173.455
 20
5.70821
 11
173.312
 21
5.73399
  0
LINE
  8
0
 10
173.312
 20
5.73399
 11
173.184
 21
5.71233
  0
LINE
  8
0
 10
173.184
 20
5.71233
 11
173.076
 21
5.64732
  0
LINE
  8
0
 10
173.076
 20
5.64732
 11
172.989
 21
5.53899
  0
LINE
  8
0
 10
172.989
 20
5.53899
 11
172.926
 21
5.39021
  0
LINE
  8
0
 10
172.926
 20
5.39021
 11
172.888
 21
5.20255
  0
LINE
  8
0
 10
172.888
 20
5.20255
 11
172.875
 21
4.97598
  0
LINE
  8
0
 10
172.875
 20
4.97598
 11
172.925
 21
5.05087
  0
LINE
  8
0
 10
172.925
 20
5.05087
 11
172.987
 21
5.11287
  0
LINE
  8
0
 10
172.987
 20
5.11287
 11
173.061
 21
5.16199
  0
LINE
  8
0
 10
173.061
 20
5.16199
 11
173.146
 21
5.19754
  0
LINE
  8
0
 10
173.146
 20
5.19754
 11
173.238
 21
5.21887
  0
LINE
  8
0
 10
173.238
 20
5.21887
 11
173.337
 21
5.22598
  0
LINE
  8
0
 10
173.337
 20
5.22598
 11
173.501
 21
5.20821
  0
LINE
  8
0
 10
173.501
 20
5.20821
 11
173.64
 21
5.15488
  0
LINE
  8
0
 10
173.64
 20
5.15488
 11
173.755
 21
5.06599
  0
LINE
  8
0
 10
173.755
 20
5.06599
 11
173.841
 21
4.94777
  0
LINE
  8
0
 10
173.841
 20
4.94777
 11
173.893
 21
4.8051
  0
LINE
  8
0
 10
173.893
 20
4.8051
 11
173.91
 21
4.63799
  0
LINE
  8
0
 10
173.91
 20
4.63799
 11
173.892
 21
4.45755
  0
LINE
  8
0
 10
173.892
 20
4.45755
 11
173.837
 21
4.30421
  0
LINE
  8
0
 10
173.837
 20
4.30421
 11
173.746
 21
4.17799
  0
LINE
  8
0
 10
173.746
 20
4.17799
 11
173.624
 21
4.08466
  0
LINE
  8
0
 10
173.624
 20
4.08466
 11
173.474
 21
4.02866
  0
LINE
  8
0
 10
173.474
 20
4.02866
 11
173.296
 21
4.00999
  0
LINE
  8
0
 10
173.296
 20
4.00999
 11
173.099
 21
4.03598
  0
LINE
  8
0
 10
173.397
 20
4.21754
 11
173.489
 21
4.2552
  0
LINE
  8
0
 10
173.489
 20
4.2552
 11
173.564
 21
4.31799
  0
LINE
  8
0
 10
173.564
 20
4.31799
 11
173.62
 21
4.40265
  0
LINE
  8
0
 10
173.62
 20
4.40265
 11
173.653
 21
4.50598
  0
LINE
  8
0
 10
173.653
 20
4.50598
 11
173.664
 21
4.62799
  0
LINE
  8
0
 10
173.664
 20
4.62799
 11
173.653
 21
4.74931
  0
LINE
  8
0
 10
173.653
 20
4.74931
 11
173.619
 21
4.85065
  0
LINE
  8
0
 10
173.619
 20
4.85065
 11
173.562
 21
4.93199
  0
LINE
  8
0
 10
173.562
 20
4.93199
 11
173.486
 21
4.99142
  0
LINE
  8
0
 10
173.486
 20
4.99142
 11
173.391
 21
5.0271
  0
LINE
  8
0
 10
173.391
 20
5.0271
 11
173.279
 21
5.03899
  0
LINE
  8
0
 10
173.279
 20
5.03899
 11
173.173
 21
5.02843
  0
LINE
  8
0
 10
173.173
 20
5.02843
 11
173.081
 21
4.99677
  0
LINE
  8
0
 10
173.081
 20
4.99677
 11
173.004
 21
4.94398
  0
LINE
  8
0
 10
173.004
 20
4.94398
 11
172.946
 21
4.87321
  0
LINE
  8
0
 10
172.946
 20
4.87321
 11
172.911
 21
4.78621
  0
LINE
  8
0
 10
172.911
 20
4.78621
 11
172.899
 21
4.68298
  0
LINE
  8
0
 10
172.899
 20
4.68298
 11
172.911
 21
4.55144
  0
LINE
  8
0
 10
172.911
 20
4.55144
 11
172.948
 21
4.43677
  0
LINE
  8
0
 10
172.948
 20
4.43677
 11
173.008
 21
4.33899
  0
LINE
  8
0
 10
173.008
 20
4.33899
 11
173.088
 21
4.26454
  0
LINE
  8
0
 10
173.088
 20
4.26454
 11
173.181
 21
4.21988
  0
LINE
  8
0
 10
173.181
 20
4.21988
 11
173.288
 21
4.20499
  0
LINE
  8
0
 10
173.288
 20
4.20499
 11
173.397
 21
4.21754
  0
LINE
  8
0
 10
151.213
 20
4.00999
 11
151.213
 21
4.21599
  0
LINE
  8
0
 10
151.213
 20
4.21599
 11
151.695
 21
4.21599
  0
LINE
  8
0
 10
151.695
 20
4.21599
 11
151.695
 21
5.69899
  0
LINE
  8
0
 10
151.695
 20
5.69899
 11
151.268
 21
5.41798
  0
LINE
  8
0
 10
151.268
 20
5.41798
 11
151.268
 21
5.64699
  0
LINE
  8
0
 10
151.268
 20
5.64699
 11
151.715
 21
5.92999
  0
LINE
  8
0
 10
151.715
 20
5.92999
 11
151.938
 21
5.92999
  0
LINE
  8
0
 10
151.938
 20
5.92999
 11
151.938
 21
4.21599
  0
LINE
  8
0
 10
151.938
 20
4.21599
 11
152.399
 21
4.21599
  0
LINE
  8
0
 10
152.399
 20
4.21599
 11
152.399
 21
4.00999
  0
LINE
  8
0
 10
152.399
 20
4.00999
 11
151.213
 21
4.00999
  0
LINE
  8
0
 10
143.085
 20
4.02432
 11
142.932
 21
4.06732
  0
LINE
  8
0
 10
142.932
 20
4.06732
 11
142.804
 21
4.13899
  0
LINE
  8
0
 10
142.804
 20
4.13899
 11
142.705
 21
4.23943
  0
LINE
  8
0
 10
142.705
 20
4.23943
 11
142.637
 21
4.36743
  0
LINE
  8
0
 10
142.637
 20
4.36743
 11
142.6
 21
4.52298
  0
LINE
  8
0
 10
142.6
 20
4.52298
 11
142.85
 21
4.54599
  0
LINE
  8
0
 10
142.85
 20
4.54599
 11
142.918
 21
4.35931
  0
LINE
  8
0
 10
142.918
 20
4.35931
 11
143.056
 21
4.24731
  0
LINE
  8
0
 10
143.056
 20
4.24731
 11
143.265
 21
4.20999
  0
LINE
  8
0
 10
143.265
 20
4.20999
 11
143.379
 21
4.21988
  0
LINE
  8
0
 10
143.379
 20
4.21988
 11
143.475
 21
4.24954
  0
LINE
  8
0
 10
143.475
 20
4.24954
 11
143.553
 21
4.29898
  0
LINE
  8
0
 10
143.553
 20
4.29898
 11
143.611
 21
4.36798
  0
LINE
  8
0
 10
143.611
 20
4.36798
 11
143.646
 21
4.45631
  0
LINE
  8
0
 10
143.646
 20
4.45631
 11
143.658
 21
4.56398
  0
LINE
  8
0
 10
143.658
 20
4.56398
 11
143.645
 21
4.65843
  0
LINE
  8
0
 10
143.645
 20
4.65843
 11
143.605
 21
4.73776
  0
LINE
  8
0
 10
143.605
 20
4.73776
 11
143.538
 21
4.80199
  0
LINE
  8
0
 10
143.538
 20
4.80199
 11
143.447
 21
4.84976
  0
LINE
  8
0
 10
143.447
 20
4.84976
 11
143.332
 21
4.87843
  0
LINE
  8
0
 10
143.332
 20
4.87843
 11
143.194
 21
4.88799
  0
LINE
  8
0
 10
143.194
 20
4.88799
 11
143.056
 21
4.88799
  0
LINE
  8
0
 10
143.056
 20
4.88799
 11
143.056
 21
5.09799
  0
LINE
  8
0
 10
143.056
 20
5.09799
 11
143.189
 21
5.09799
  0
LINE
  8
0
 10
143.189
 20
5.09799
 11
143.312
 21
5.10732
  0
LINE
  8
0
 10
143.312
 20
5.10732
 11
143.416
 21
5.13531
  0
LINE
  8
0
 10
143.416
 20
5.13531
 11
143.499
 21
5.18199
  0
LINE
  8
0
 10
143.499
 20
5.18199
 11
143.56
 21
5.2451
  0
LINE
  8
0
 10
143.56
 20
5.2451
 11
143.597
 21
5.32243
  0
LINE
  8
0
 10
143.597
 20
5.32243
 11
143.609
 21
5.41399
  0
LINE
  8
0
 10
143.609
 20
5.41399
 11
143.599
 21
5.5051
  0
LINE
  8
0
 10
143.599
 20
5.5051
 11
143.569
 21
5.58243
  0
LINE
  8
0
 10
143.569
 20
5.58243
 11
143.519
 21
5.64598
  0
LINE
  8
0
 10
143.519
 20
5.64598
 11
143.449
 21
5.69321
  0
LINE
  8
0
 10
143.449
 20
5.69321
 11
143.36
 21
5.72154
  0
LINE
  8
0
 10
143.36
 20
5.72154
 11
143.252
 21
5.73099
  0
LINE
  8
0
 10
143.252
 20
5.73099
 11
143.152
 21
5.72188
  0
LINE
  8
0
 10
143.152
 20
5.72188
 11
143.065
 21
5.69455
  0
LINE
  8
0
 10
143.065
 20
5.69455
 11
142.991
 21
5.64899
  0
LINE
  8
0
 10
142.991
 20
5.64899
 11
142.934
 21
5.58687
  0
LINE
  8
0
 10
142.934
 20
5.58687
 11
142.896
 21
5.50987
  0
LINE
  8
0
 10
142.896
 20
5.50987
 11
142.876
 21
5.41798
  0
LINE
  8
0
 10
142.876
 20
5.41798
 11
142.633
 21
5.43698
  0
LINE
  8
0
 10
142.633
 20
5.43698
 11
142.667
 21
5.58032
  0
LINE
  8
0
 10
142.667
 20
5.58032
 11
142.731
 21
5.70099
  0
LINE
  8
0
 10
142.731
 20
5.70099
 11
142.826
 21
5.79898
  0
LINE
  8
0
 10
142.826
 20
5.79898
 11
142.948
 21
5.87177
  0
LINE
  8
0
 10
142.948
 20
5.87177
 11
143.091
 21
5.91544
  0
LINE
  8
0
 10
143.091
 20
5.91544
 11
143.254
 21
5.92999
  0
LINE
  8
0
 10
143.254
 20
5.92999
 11
143.431
 21
5.91554
  0
LINE
  8
0
 10
143.431
 20
5.91554
 11
143.579
 21
5.87221
  0
LINE
  8
0
 10
143.579
 20
5.87221
 11
143.698
 21
5.79999
  0
LINE
  8
0
 10
143.698
 20
5.79999
 11
143.786
 21
5.70265
  0
LINE
  8
0
 10
143.786
 20
5.70265
 11
143.839
 21
5.58266
  0
LINE
  8
0
 10
143.839
 20
5.58266
 11
143.857
 21
5.43999
  0
LINE
  8
0
 10
143.857
 20
5.43999
 11
143.846
 21
5.32877
  0
LINE
  8
0
 10
143.846
 20
5.32877
 11
143.812
 21
5.23244
  0
LINE
  8
0
 10
143.812
 20
5.23244
 11
143.755
 21
5.15099
  0
LINE
  8
0
 10
143.755
 20
5.15099
 11
143.677
 21
5.08499
  0
LINE
  8
0
 10
143.677
 20
5.08499
 11
143.578
 21
5.03499
  0
LINE
  8
0
 10
143.578
 20
5.03499
 11
143.459
 21
5.00099
  0
LINE
  8
0
 10
143.459
 20
5.00099
 11
143.459
 21
4.99599
  0
LINE
  8
0
 10
143.459
 20
4.99599
 11
143.591
 21
4.96999
  0
LINE
  8
0
 10
143.591
 20
4.96999
 11
143.701
 21
4.92265
  0
LINE
  8
0
 10
143.701
 20
4.92265
 11
143.791
 21
4.85399
  0
LINE
  8
0
 10
143.791
 20
4.85399
 11
143.857
 21
4.76843
  0
LINE
  8
0
 10
143.857
 20
4.76843
 11
143.897
 21
4.6691
  0
LINE
  8
0
 10
143.897
 20
4.6691
 11
143.91
 21
4.55598
  0
LINE
  8
0
 10
143.91
 20
4.55598
 11
143.891
 21
4.3951
  0
LINE
  8
0
 10
143.891
 20
4.3951
 11
143.835
 21
4.26044
  0
LINE
  8
0
 10
143.835
 20
4.26044
 11
143.742
 21
4.15199
  0
LINE
  8
0
 10
143.742
 20
4.15199
 11
143.615
 21
4.0731
  0
LINE
  8
0
 10
143.615
 20
4.0731
 11
143.456
 21
4.02577
  0
LINE
  8
0
 10
143.456
 20
4.02577
 11
143.265
 21
4.00999
  0
LINE
  8
0
 10
143.265
 20
4.00999
 11
143.085
 21
4.02432
  0
LINE
  8
0
 10
181.213
 20
4.00999
 11
181.213
 21
4.21599
  0
LINE
  8
0
 10
181.213
 20
4.21599
 11
181.695
 21
4.21599
  0
LINE
  8
0
 10
181.695
 20
4.21599
 11
181.695
 21
5.69899
  0
LINE
  8
0
 10
181.695
 20
5.69899
 11
181.268
 21
5.41798
  0
LINE
  8
0
 10
181.268
 20
5.41798
 11
181.268
 21
5.64699
  0
LINE
  8
0
 10
181.268
 20
5.64699
 11
181.715
 21
5.92999
  0
LINE
  8
0
 10
181.715
 20
5.92999
 11
181.938
 21
5.92999
  0
LINE
  8
0
 10
181.938
 20
5.92999
 11
181.938
 21
4.21599
  0
LINE
  8
0
 10
181.938
 20
4.21599
 11
182.399
 21
4.21599
  0
LINE
  8
0
 10
182.399
 20
4.21599
 11
182.399
 21
4.00999
  0
LINE
  8
0
 10
182.399
 20
4.00999
 11
181.213
 21
4.00999
  0
LINE
  8
0
 10
71.6038
 20
4.03598
 11
71.4401
 21
4.11398
  0
LINE
  8
0
 10
71.4401
 20
4.11398
 11
71.31
 21
4.24399
  0
LINE
  8
0
 10
71.31
 20
4.24399
 11
71.2155
 21
4.42421
  0
LINE
  8
0
 10
71.2155
 20
4.42421
 11
71.1589
 21
4.65154
  0
LINE
  8
0
 10
71.1589
 20
4.65154
 11
71.14
 21
4.92598
  0
LINE
  8
0
 10
71.14
 20
4.92598
 11
71.1595
 21
5.22421
  0
LINE
  8
0
 10
71.1595
 20
5.22421
 11
71.2182
 21
5.47221
  0
LINE
  8
0
 10
71.2182
 20
5.47221
 11
71.316
 21
5.66998
  0
LINE
  8
0
 10
71.316
 20
5.66998
 11
71.4507
 21
5.81444
  0
LINE
  8
0
 10
71.4507
 20
5.81444
 11
71.6187
 21
5.90109
  0
LINE
  8
0
 10
71.6187
 20
5.90109
 11
71.82
 21
5.92999
  0
LINE
  8
0
 10
71.82
 20
5.92999
 11
72.0713
 21
5.8871
  0
LINE
  8
0
 10
72.0713
 20
5.8871
 11
72.252
 21
5.75844
  0
LINE
  8
0
 10
72.252
 20
5.75844
 11
72.362
 21
5.54399
  0
LINE
  8
0
 10
72.362
 20
5.54399
 11
72.131
 21
5.50198
  0
LINE
  8
0
 10
72.131
 20
5.50198
 11
72.0641
 21
5.63087
  0
LINE
  8
0
 10
72.0641
 20
5.63087
 11
71.9594
 21
5.70821
  0
LINE
  8
0
 10
71.9594
 20
5.70821
 11
71.817
 21
5.73399
  0
LINE
  8
0
 10
71.817
 20
5.73399
 11
71.6887
 21
5.71233
  0
LINE
  8
0
 10
71.6887
 20
5.71233
 11
71.581
 21
5.64732
  0
LINE
  8
0
 10
71.581
 20
5.64732
 11
71.494
 21
5.53899
  0
LINE
  8
0
 10
71.494
 20
5.53899
 11
71.4307
 21
5.39021
  0
LINE
  8
0
 10
71.4307
 20
5.39021
 11
71.3927
 21
5.20255
  0
LINE
  8
0
 10
71.3927
 20
5.20255
 11
71.38
 21
4.97598
  0
LINE
  8
0
 10
71.38
 20
4.97598
 11
71.43
 21
5.05087
  0
LINE
  8
0
 10
71.43
 20
5.05087
 11
71.492
 21
5.11287
  0
LINE
  8
0
 10
71.492
 20
5.11287
 11
71.566
 21
5.16199
  0
LINE
  8
0
 10
71.566
 20
5.16199
 11
71.6504
 21
5.19754
  0
LINE
  8
0
 10
71.6504
 20
5.19754
 11
71.7424
 21
5.21887
  0
LINE
  8
0
 10
71.7424
 20
5.21887
 11
71.842
 21
5.22598
  0
LINE
  8
0
 10
71.842
 20
5.22598
 11
72.0058
 21
5.20821
  0
LINE
  8
0
 10
72.0058
 20
5.20821
 11
72.1451
 21
5.15488
  0
LINE
  8
0
 10
72.1451
 20
5.15488
 11
72.26
 21
5.06599
  0
LINE
  8
0
 10
72.26
 20
5.06599
 11
72.3461
 21
4.94777
  0
LINE
  8
0
 10
72.3461
 20
4.94777
 11
72.3978
 21
4.8051
  0
LINE
  8
0
 10
72.3978
 20
4.8051
 11
72.415
 21
4.63799
  0
LINE
  8
0
 10
72.415
 20
4.63799
 11
72.3968
 21
4.45755
  0
LINE
  8
0
 10
72.3968
 20
4.45755
 11
72.3421
 21
4.30421
  0
LINE
  8
0
 10
72.3421
 20
4.30421
 11
72.251
 21
4.17799
  0
LINE
  8
0
 10
72.251
 20
4.17799
 11
72.1286
 21
4.08466
  0
LINE
  8
0
 10
72.1286
 20
4.08466
 11
71.9785
 21
4.02866
  0
LINE
  8
0
 10
71.9785
 20
4.02866
 11
71.801
 21
4.00999
  0
LINE
  8
0
 10
71.801
 20
4.00999
 11
71.6038
 21
4.03598
  0
LINE
  8
0
 10
71.9019
 20
4.21754
 11
71.9939
 21
4.2552
  0
LINE
  8
0
 10
71.9939
 20
4.2552
 11
72.069
 21
4.31799
  0
LINE
  8
0
 10
72.069
 20
4.31799
 11
72.1245
 21
4.40265
  0
LINE
  8
0
 10
72.1245
 20
4.40265
 11
72.1579
 21
4.50598
  0
LINE
  8
0
 10
72.1579
 20
4.50598
 11
72.169
 21
4.62799
  0
LINE
  8
0
 10
72.169
 20
4.62799
 11
72.1577
 21
4.74931
  0
LINE
  8
0
 10
72.1577
 20
4.74931
 11
72.1237
 21
4.85065
  0
LINE
  8
0
 10
72.1237
 20
4.85065
 11
72.067
 21
4.93199
  0
LINE
  8
0
 10
72.067
 20
4.93199
 11
71.9907
 21
4.99142
  0
LINE
  8
0
 10
71.9907
 20
4.99142
 11
71.8963
 21
5.0271
  0
LINE
  8
0
 10
71.8963
 20
5.0271
 11
71.784
 21
5.03899
  0
LINE
  8
0
 10
71.784
 20
5.03899
 11
71.6779
 21
5.02843
  0
LINE
  8
0
 10
71.6779
 20
5.02843
 11
71.5862
 21
4.99677
  0
LINE
  8
0
 10
71.5862
 20
4.99677
 11
71.509
 21
4.94398
  0
LINE
  8
0
 10
71.509
 20
4.94398
 11
71.4507
 21
4.87321
  0
LINE
  8
0
 10
71.4507
 20
4.87321
 11
71.4157
 21
4.78621
  0
LINE
  8
0
 10
71.4157
 20
4.78621
 11
71.404
 21
4.68298
  0
LINE
  8
0
 10
71.404
 20
4.68298
 11
71.4161
 21
4.55144
  0
LINE
  8
0
 10
71.4161
 20
4.55144
 11
71.4524
 21
4.43677
  0
LINE
  8
0
 10
71.4524
 20
4.43677
 11
71.513
 21
4.33899
  0
LINE
  8
0
 10
71.513
 20
4.33899
 11
71.5925
 21
4.26454
  0
LINE
  8
0
 10
71.5925
 20
4.26454
 11
71.6859
 21
4.21988
  0
LINE
  8
0
 10
71.6859
 20
4.21988
 11
71.793
 21
4.20499
  0
LINE
  8
0
 10
71.793
 20
4.20499
 11
71.9019
 21
4.21754
  0
LINE
  8
0
 10
111.213
 20
4.00999
 11
111.213
 21
4.21599
  0
LINE
  8
0
 10
111.213
 20
4.21599
 11
111.695
 21
4.21599
  0
LINE
  8
0
 10
111.695
 20
4.21599
 11
111.695
 21
5.69899
  0
LINE
  8
0
 10
111.695
 20
5.69899
 11
111.268
 21
5.41798
  0
LINE
  8
0
 10
111.268
 20
5.41798
 11
111.268
 21
5.64699
  0
LINE
  8
0
 10
111.268
 20
5.64699
 11
111.715
 21
5.92999
  0
LINE
  8
0
 10
111.715
 20
5.92999
 11
111.938
 21
5.92999
  0
LINE
  8
0
 10
111.938
 20
5.92999
 11
111.938
 21
4.21599
  0
LINE
  8
0
 10
111.938
 20
4.21599
 11
112.399
 21
4.21599
  0
LINE
  8
0
 10
112.399
 20
4.21599
 11
112.399
 21
4.00999
  0
LINE
  8
0
 10
112.399
 20
4.00999
 11
111.213
 21
4.00999
  0
LINE
  8
0
 10
161.213
 20
4.00999
 11
161.213
 21
4.21599
  0
LINE
  8
0
 10
161.213
 20
4.21599
 11
161.695
 21
4.21599
  0
LINE
  8
0
 10
161.695
 20
4.21599
 11
161.695
 21
5.69899
  0
LINE
  8
0
 10
161.695
 20
5.69899
 11
161.268
 21
5.41798
  0
LINE
  8
0
 10
161.268
 20
5.41798
 11
161.268
 21
5.64699
  0
LINE
  8
0
 10
161.268
 20
5.64699
 11
161.715
 21
5.92999
  0
LINE
  8
0
 10
161.715
 20
5.92999
 11
161.938
 21
5.92999
  0
LINE
  8
0
 10
161.938
 20
5.92999
 11
161.938
 21
4.21599
  0
LINE
  8
0
 10
161.938
 20
4.21599
 11
162.399
 21
4.21599
  0
LINE
  8
0
 10
162.399
 20
4.21599
 11
162.399
 21
4.00999
  0
LINE
  8
0
 10
162.399
 20
4.00999
 11
161.213
 21
4.00999
  0
LINE
  8
0
 10
113.06
 20
4.03722
 11
112.895
 21
4.11888
  0
LINE
  8
0
 10
112.895
 20
4.11888
 11
112.767
 21
4.25499
  0
LINE
  8
0
 10
112.767
 20
4.25499
 11
112.676
 21
4.44331
  0
LINE
  8
0
 10
112.676
 20
4.44331
 11
112.621
 21
4.68166
  0
LINE
  8
0
 10
112.621
 20
4.68166
 11
112.603
 21
4.96999
  0
LINE
  8
0
 10
112.603
 20
4.96999
 11
112.621
 21
5.26376
  0
LINE
  8
0
 10
112.621
 20
5.26376
 11
112.674
 21
5.50377
  0
LINE
  8
0
 10
112.674
 20
5.50377
 11
112.763
 21
5.68999
  0
LINE
  8
0
 10
112.763
 20
5.68999
 11
112.89
 21
5.82332
  0
LINE
  8
0
 10
112.89
 20
5.82332
 11
113.059
 21
5.90332
  0
LINE
  8
0
 10
113.059
 20
5.90332
 11
113.268
 21
5.92999
  0
LINE
  8
0
 10
113.268
 20
5.92999
 11
113.472
 21
5.90298
  0
LINE
  8
0
 10
113.472
 20
5.90298
 11
113.637
 21
5.82199
  0
LINE
  8
0
 10
113.637
 20
5.82199
 11
113.763
 21
5.68698
  0
LINE
  8
0
 10
113.763
 20
5.68698
 11
113.852
 21
5.49977
  0
LINE
  8
0
 10
113.852
 20
5.49977
 11
113.905
 21
5.26076
  0
LINE
  8
0
 10
113.905
 20
5.26076
 11
113.923
 21
4.96999
  0
LINE
  8
0
 10
113.923
 20
4.96999
 11
113.904
 21
4.68311
  0
LINE
  8
0
 10
113.904
 20
4.68311
 11
113.848
 21
4.4451
  0
LINE
  8
0
 10
113.848
 20
4.4451
 11
113.755
 21
4.25598
  0
LINE
  8
0
 10
113.755
 20
4.25598
 11
113.625
 21
4.11932
  0
LINE
  8
0
 10
113.625
 20
4.11932
 11
113.46
 21
4.03732
  0
LINE
  8
0
 10
113.46
 20
4.03732
 11
113.26
 21
4.00999
  0
LINE
  8
0
 10
113.26
 20
4.00999
 11
113.06
 21
4.03722
  0
LINE
  8
0
 10
113.393
 20
4.22876
 11
113.498
 21
4.29109
  0
LINE
  8
0
 10
113.498
 20
4.29109
 11
113.577
 21
4.39499
  0
LINE
  8
0
 10
113.577
 20
4.39499
 11
113.633
 21
4.54243
  0
LINE
  8
0
 10
113.633
 20
4.54243
 11
113.666
 21
4.7341
  0
LINE
  8
0
 10
113.666
 20
4.7341
 11
113.677
 21
4.96999
  0
LINE
  8
0
 10
113.677
 20
4.96999
 11
113.666
 21
5.21388
  0
LINE
  8
0
 10
113.666
 20
5.21388
 11
113.634
 21
5.4082
  0
LINE
  8
0
 10
113.634
 20
5.4082
 11
113.581
 21
5.55299
  0
LINE
  8
0
 10
113.581
 20
5.55299
 11
113.504
 21
5.65355
  0
LINE
  8
0
 10
113.504
 20
5.65355
 11
113.399
 21
5.71388
  0
LINE
  8
0
 10
113.399
 20
5.71388
 11
113.267
 21
5.73399
  0
LINE
  8
0
 10
113.267
 20
5.73399
 11
113.132
 21
5.7142
  0
LINE
  8
0
 10
113.132
 20
5.7142
 11
113.024
 21
5.65488
  0
LINE
  8
0
 10
113.024
 20
5.65488
 11
112.945
 21
5.55598
  0
LINE
  8
0
 10
112.945
 20
5.55598
 11
112.891
 21
5.41176
  0
LINE
  8
0
 10
112.891
 20
5.41176
 11
112.858
 21
5.21643
  0
LINE
  8
0
 10
112.858
 20
5.21643
 11
112.847
 21
4.96999
  0
LINE
  8
0
 10
112.847
 20
4.96999
 11
112.858
 21
4.7301
  0
LINE
  8
0
 10
112.858
 20
4.7301
 11
112.891
 21
4.53709
  0
LINE
  8
0
 10
112.891
 20
4.53709
 11
112.946
 21
4.39099
  0
LINE
  8
0
 10
112.946
 20
4.39099
 11
113.026
 21
4.28932
  0
LINE
  8
0
 10
113.026
 20
4.28932
 11
113.131
 21
4.22832
  0
LINE
  8
0
 10
113.131
 20
4.22832
 11
113.262
 21
4.20799
  0
LINE
  8
0
 10
113.262
 20
4.20799
 11
113.393
 21
4.22876
  0
LINE
  8
0
 10
163.075
 20
4.02277
 11
162.932
 21
4.0611
  0
LINE
  8
0
 10
162.932
 20
4.0611
 11
162.812
 21
4.12498
  0
LINE
  8
0
 10
162.812
 20
4.12498
 11
162.717
 21
4.21388
  0
LINE
  8
0
 10
162.717
 20
4.21388
 11
162.648
 21
4.32588
  0
LINE
  8
0
 10
162.648
 20
4.32588
 11
162.606
 21
4.46098
  0
LINE
  8
0
 10
162.606
 20
4.46098
 11
162.851
 21
4.48898
  0
LINE
  8
0
 10
162.851
 20
4.48898
 11
162.929
 21
4.33287
  0
LINE
  8
0
 10
162.929
 20
4.33287
 11
163.061
 21
4.23921
  0
LINE
  8
0
 10
163.061
 20
4.23921
 11
163.247
 21
4.20799
  0
LINE
  8
0
 10
163.247
 20
4.20799
 11
163.368
 21
4.22076
  0
LINE
  8
0
 10
163.368
 20
4.22076
 11
163.47
 21
4.25909
  0
LINE
  8
0
 10
163.47
 20
4.25909
 11
163.553
 21
4.32298
  0
LINE
  8
0
 10
163.553
 20
4.32298
 11
163.615
 21
4.4091
  0
LINE
  8
0
 10
163.615
 20
4.4091
 11
163.652
 21
4.5141
  0
LINE
  8
0
 10
163.652
 20
4.5141
 11
163.664
 21
4.63799
  0
LINE
  8
0
 10
163.664
 20
4.63799
 11
163.652
 21
4.7471
  0
LINE
  8
0
 10
163.652
 20
4.7471
 11
163.614
 21
4.84109
  0
LINE
  8
0
 10
163.614
 20
4.84109
 11
163.552
 21
4.91998
  0
LINE
  8
0
 10
163.552
 20
4.91998
 11
163.469
 21
4.97998
  0
LINE
  8
0
 10
163.469
 20
4.97998
 11
163.369
 21
5.01599
  0
LINE
  8
0
 10
163.369
 20
5.01599
 11
163.252
 21
5.02798
  0
LINE
  8
0
 10
163.252
 20
5.02798
 11
163.188
 21
5.02454
  0
LINE
  8
0
 10
163.188
 20
5.02454
 11
163.126
 21
5.01421
  0
LINE
  8
0
 10
163.126
 20
5.01421
 11
163.068
 21
4.99699
  0
LINE
  8
0
 10
163.068
 20
4.99699
 11
163.011
 21
4.97154
  0
LINE
  8
0
 10
163.011
 20
4.97154
 11
162.955
 21
4.93654
  0
LINE
  8
0
 10
162.955
 20
4.93654
 11
162.898
 21
4.89198
  0
LINE
  8
0
 10
162.898
 20
4.89198
 11
162.661
 21
4.89198
  0
LINE
  8
0
 10
162.661
 20
4.89198
 11
162.724
 21
5.92999
  0
LINE
  8
0
 10
162.724
 20
5.92999
 11
163.804
 21
5.92999
  0
LINE
  8
0
 10
163.804
 20
5.92999
 11
163.804
 21
5.72398
  0
LINE
  8
0
 10
163.804
 20
5.72398
 11
162.945
 21
5.72398
  0
LINE
  8
0
 10
162.945
 20
5.72398
 11
162.909
 21
5.10498
  0
LINE
  8
0
 10
162.909
 20
5.10498
 11
163.023
 21
5.17221
  0
LINE
  8
0
 10
163.023
 20
5.17221
 11
163.154
 21
5.21254
  0
LINE
  8
0
 10
163.154
 20
5.21254
 11
163.301
 21
5.22598
  0
LINE
  8
0
 10
163.301
 20
5.22598
 11
163.476
 21
5.20799
  0
LINE
  8
0
 10
163.476
 20
5.20799
 11
163.625
 21
5.15399
  0
LINE
  8
0
 10
163.625
 20
5.15399
 11
163.748
 21
5.06398
  0
LINE
  8
0
 10
163.748
 20
5.06398
 11
163.841
 21
4.94577
  0
LINE
  8
0
 10
163.841
 20
4.94577
 11
163.897
 21
4.80577
  0
LINE
  8
0
 10
163.897
 20
4.80577
 11
163.915
 21
4.64398
  0
LINE
  8
0
 10
163.915
 20
4.64398
 11
163.895
 21
4.46121
  0
LINE
  8
0
 10
163.895
 20
4.46121
 11
163.836
 21
4.30621
  0
LINE
  8
0
 10
163.836
 20
4.30621
 11
163.736
 21
4.17899
  0
LINE
  8
0
 10
163.736
 20
4.17899
 11
163.602
 21
4.0851
  0
LINE
  8
0
 10
163.602
 20
4.0851
 11
163.437
 21
4.02876
  0
LINE
  8
0
 10
163.437
 20
4.02876
 11
163.241
 21
4.00999
  0
LINE
  8
0
 10
163.241
 20
4.00999
 11
163.075
 21
4.02277
  0
LINE
  8
0
 10
71
 20
0.00999451
 11
71
 21
4.00999
  0
LINE
  8
0
 10
71
 20
4.00999
 11
71.2
 21
4.00999
  0
LINE
  8
0
 10
71.2
 20
4.00999
 11
71.2
 21
0.00999451
  0
LINE
  8
0
 10
71.2
 20
0.00999451
 11
71
 21
0.00999451
  0
LINE
  8
0
 10
61
 20
0.00999451
 11
61
 21
4.00999
  0
LINE
  8
0
 10
61
 20
4.00999
 11
61.2
 21
4.00999
  0
LINE
  8
0
 10
61.2
 20
4.00999
 11
61.2
 21
0.00999451
  0
LINE
  8
0
 10
61.2
 20
0.00999451
 11
61
 21
0.00999451
  0
LINE
  8
0
 10
51
 20
0.00999451
 11
51
 21
4.00999
  0
LINE
  8
0
 10
51
 20
4.00999
 11
51.2
 21
4.00999
  0
LINE
  8
0
 10
51.2
 20
4.00999
 11
51.2
 21
0.00999451
  0
LINE
  8
0
 10
51.2
 20
0.00999451
 11
51
 21
0.00999451
  0
LINE
  8
0
 10
191
 20
0.00999451
 11
191
 21
4.00999
  0
LINE
  8
0
 10
191
 20
4.00999
 11
191.2
 21
4.00999
  0
LINE
  8
0
 10
191.2
 20
4.00999
 11
191.2
 21
0.00999451
  0
LINE
  8
0
 10
191.2
 20
0.00999451
 11
191
 21
0.00999451
  0
LINE
  8
0
 10
41
 20
0.00999451
 11
41
 21
4.00999
  0
LINE
  8
0
 10
41
 20
4.00999
 11
41.2
 21
4.00999
  0
LINE
  8
0
 10
41.2
 20
4.00999
 11
41.2
 21
0.00999451
  0
LINE
  8
0
 10
41.2
 20
0.00999451
 11
41
 21
0.00999451
  0
LINE
  8
0
 10
21
 20
0.00999451
 11
21
 21
4.00999
  0
LINE
  8
0
 10
21
 20
4.00999
 11
21.2
 21
4.00999
  0
LINE
  8
0
 10
21.2
 20
4.00999
 11
21.2
 21
0.00999451
  0
LINE
  8
0
 10
21.2
 20
0.00999451
 11
21
 21
0.00999451
  0
LINE
  8
0
 10
11
 20
0.00999451
 11
11
 21
4.00999
  0
LINE
  8
0
 10
11
 20
4.00999
 11
11.2
 21
4.00999
  0
LINE
  8
0
 10
11.2
 20
4.00999
 11
11.2
 21
0.00999451
  0
LINE
  8
0
 10
11.2
 20
0.00999451
 11
11
 21
0.00999451
  0
LINE
  8
0
 10
91
 20
0.00999451
 11
91
 21
4.00999
  0
LINE
  8
0
 10
91
 20
4.00999
 11
91.2
 21
4.00999
  0
LINE
  8
0
 10
91.2
 20
4.00999
 11
91.2
 21
0.00999451
  0
LINE
  8
0
 10
91.2
 20
0.00999451
 11
91
 21
0.00999451
  0
LINE
  8
0
 10
81
 20
0.00999451
 11
81
 21
4.00999
  0
LINE
  8
0
 10
81
 20
4.00999
 11
81.2
 21
4.00999
  0
LINE
  8
0
 10
81.2
 20
4.00999
 11
81.2
 21
0.00999451
  0
LINE
  8
0
 10
81.2
 20
0.00999451
 11
81
 21
0.00999451
  0
LINE
  8
0
 10
151
 20
0.00999451
 11
151
 21
4.00999
  0
LINE
  8
0
 10
151
 20
4.00999
 11
151.2
 21
4.00999
  0
LINE
  8
0
 10
151.2
 20
4.00999
 11
151.2
 21
0.00999451
  0
LINE
  8
0
 10
151.2
 20
0.00999451
 11
151
 21
0.00999451
  0
LINE
  8
0
 10
101
 20
0.00999451
 11
101
 21
4.00999
  0
LINE
  8
0
 10
101
 20
4.00999
 11
101.2
 21
4.00999
  0
LINE
  8
0
 10
101.2
 20
4.00999
 11
101.2
 21
0.00999451
  0
LINE
  8
0
 10
101.2
 20
0.00999451
 11
101
 21
0.00999451
  0
LINE
  8
0
 10
171
 20
0.00999451
 11
171
 21
4.00999
  0
LINE
  8
0
 10
171
 20
4.00999
 11
171.2
 21
4.00999
  0
LINE
  8
0
 10
171.2
 20
4.00999
 11
171.2
 21
0.00999451
  0
LINE
  8
0
 10
171.2
 20
0.00999451
 11
171
 21
0.00999451
  0
LINE
  8
0
 10
111
 20
0.00999451
 11
111
 21
4.00999
  0
LINE
  8
0
 10
111
 20
4.00999
 11
111.2
 21
4.00999
  0
LINE
  8
0
 10
111.2
 20
4.00999
 11
111.2
 21
0.00999451
  0
LINE
  8
0
 10
111.2
 20
0.00999451
 11
111
 21
0.00999451
  0
LINE
  8
0
 10
121
 20
0.00999451
 11
121
 21
4.00999
  0
LINE
  8
0
 10
121
 20
4.00999
 11
121.2
 21
4.00999
  0
LINE
  8
0
 10
121.2
 20
4.00999
 11
121.2
 21
0.00999451
  0
LINE
  8
0
 10
121.2
 20
0.00999451
 11
121
 21
0.00999451
  0
LINE
  8
0
 10
131
 20
0.00999451
 11
131
 21
4.00999
  0
LINE
  8
0
 10
131
 20
4.00999
 11
131.2
 21
4.00999
  0
LINE
  8
0
 10
131.2
 20
4.00999
 11
131.2
 21
0.00999451
  0
LINE
  8
0
 10
131.2
 20
0.00999451
 11
131
 21
0.00999451
  0
LINE
  8
0
 10
141
 20
0.00999451
 11
141
 21
4.00999
  0
LINE
  8
0
 10
141
 20
4.00999
 11
141.2
 21
4.00999
  0
LINE
  8
0
 10
141.2
 20
4.00999
 11
141.2
 21
0.00999451
  0
LINE
  8
0
 10
141.2
 20
0.00999451
 11
141
 21
0.00999451
  0
LINE
  8
0
 10
161
 20
0.00999451
 11
161
 21
4.00999
  0
LINE
  8
0
 10
161
 20
4.00999
 11
161.2
 21
4.00999
  0
LINE
  8
0
 10
161.2
 20
4.00999
 11
161.2
 21
0.00999451
  0
LINE
  8
0
 10
161.2
 20
0.00999451
 11
161
 21
0.00999451
  0
LINE
  8
0
 10
181
 20
0.00999451
 11
181
 21
4.00999
  0
LINE
  8
0
 10
181
 20
4.00999
 11
181.2
 21
4.00999
  0
LINE
  8
0
 10
181.2
 20
4.00999
 11
181.2
 21
0.00999451
  0
LINE
  8
0
 10
181.2
 20
0.00999451
 11
181
 21
0.00999451
  0
LINE
  8
0
 10
116
 20
0.00999451
 11
116
 21
2.50999
  0
LINE
  8
0
 10
116
 20
2.50999
 11
116.2
 21
2.50999
  0
LINE
  8
0
 10
116.2
 20
2.50999
 11
116.2
 21
0.00999451
  0
LINE
  8
0
 10
116.2
 20
0.00999451
 11
116
 21
0.00999451
  0
LINE
  8
0
 10
126
 20
0.00999451
 11
126
 21
2.50999
  0
LINE
  8
0
 10
126
 20
2.50999
 11
126.2
 21
2.50999
  0
LINE
  8
0
 10
126.2
 20
2.50999
 11
126.2
 21
0.00999451
  0
LINE
  8
0
 10
126.2
 20
0.00999451
 11
126
 21
0.00999451
  0
LINE
  8
0
 10
136
 20
0.00999451
 11
136
 21
2.50999
  0
LINE
  8
0
 10
136
 20
2.50999
 11
136.2
 21
2.50999
  0
LINE
  8
0
 10
136.2
 20
2.50999
 11
136.2
 21
0.00999451
  0
LINE
  8
0
 10
136.2
 20
0.00999451
 11
136
 21
0.00999451
  0
LINE
  8
0
 10
146
 20
0.00999451
 11
146
 21
2.50999
  0
LINE
  8
0
 10
146
 20
2.50999
 11
146.2
 21
2.50999
  0
LINE
  8
0
 10
146.2
 20
2.50999
 11
146.2
 21
0.00999451
  0
LINE
  8
0
 10
146.2
 20
0.00999451
 11
146
 21
0.00999451
  0
LINE
  8
0
 10
106
 20
0.00999451
 11
106
 21
2.50999
  0
LINE
  8
0
 10
106
 20
2.50999
 11
106.2
 21
2.50999
  0
LINE
  8
0
 10
106.2
 20
2.50999
 11
106.2
 21
0.00999451
  0
LINE
  8
0
 10
106.2
 20
0.00999451
 11
106
 21
0.00999451
  0
LINE
  8
0
 10
166
 20
0.00999451
 11
166
 21
2.50999
  0
LINE
  8
0
 10
166
 20
2.50999
 11
166.2
 21
2.50999
  0
LINE
  8
0
 10
166.2
 20
2.50999
 11
166.2
 21
0.00999451
  0
LINE
  8
0
 10
166.2
 20
0.00999451
 11
166
 21
0.00999451
  0
LINE
  8
0
 10
196
 20
0.00999451
 11
196
 21
2.50999
  0
LINE
  8
0
 10
196
 20
2.50999
 11
196.2
 21
2.50999
  0
LINE
  8
0
 10
196.2
 20
2.50999
 11
196.2
 21
0.00999451
  0
LINE
  8
0
 10
196.2
 20
0.00999451
 11
196
 21
0.00999451
  0
LINE
  8
0
 10
176
 20
0.00999451
 11
176
 21
2.50999
  0
LINE
  8
0
 10
176
 20
2.50999
 11
176.2
 21
2.50999
  0
LINE
  8
0
 10
176.2
 20
2.50999
 11
176.2
 21
0.00999451
  0
LINE
  8
0
 10
176.2
 20
0.00999451
 11
176
 21
0.00999451
  0
LINE
  8
0
 10
186
 20
0.00999451
 11
186
 21
2.50999
  0
LINE
  8
0
 10
186
 20
2.50999
 11
186.2
 21
2.50999
  0
LINE
  8
0
 10
186.2
 20
2.50999
 11
186.2
 21
0.00999451
  0
LINE
  8
0
 10
186.2
 20
0.00999451
 11
186
 21
0.00999451
  0
LINE
  8
0
 10
76
 20
0.00999451
 11
76
 21
2.50999
  0
LINE
  8
0
 10
76
 20
2.50999
 11
76.2
 21
2.50999
  0
LINE
  8
0
 10
76.2
 20
2.50999
 11
76.2
 21
0.00999451
  0
LINE
  8
0
 10
76.2
 20
0.00999451
 11
76
 21
0.00999451
  0
LINE
  8
0
 10
36
 20
0.00999451
 11
36
 21
2.50999
  0
LINE
  8
0
 10
36
 20
2.50999
 11
36.2
 21
2.50999
  0
LINE
  8
0
 10
36.2
 20
2.50999
 11
36.2
 21
0.00999451
  0
LINE
  8
0
 10
36.2
 20
0.00999451
 11
36
 21
0.00999451
  0
LINE
  8
0
 10
16
 20
0.00999451
 11
16
 21
2.50999
  0
LINE
  8
0
 10
16
 20
2.50999
 11
16.2
 21
2.50999
  0
LINE
  8
0
 10
16.2
 20
2.50999
 11
16.2
 21
0.00999451
  0
LINE
  8
0
 10
16.2
 20
0.00999451
 11
16
 21
0.00999451
  0
LINE
  8
0
 10
26
 20
0.00999451
 11
26
 21
2.50999
  0
LINE
  8
0
 10
26
 20
2.50999
 11
26.2
 21
2.50999
  0
LINE
  8
0
 10
26.2
 20
2.50999
 11
26.2
 21
0.00999451
  0
LINE
  8
0
 10
26.2
 20
0.00999451
 11
26
 21
0.00999451
  0
LINE
  8
0
 10
46
 20
0.00999451
 11
46
 21
2.50999
  0
LINE
  8
0
 10
46
 20
2.50999
 11
46.2
 21
2.50999
  0
LINE
  8
0
 10
46.2
 20
2.50999
 11
46.2
 21
0.00999451
  0
LINE
  8
0
 10
46.2
 20
0.00999451
 11
46
 21
0.00999451
  0
LINE
  8
0
 10
56
 20
0.00999451
 11
56
 21
2.50999
  0
LINE
  8
0
 10
56
 20
2.50999
 11
56.2
 21
2.50999
  0
LINE
  8
0
 10
56.2
 20
2.50999
 11
56.2
 21
0.00999451
  0
LINE
  8
0
 10
56.2
 20
0.00999451
 11
56
 21
0.00999451
  0
LINE
  8
0
 10
66
 20
0.00999451
 11
66
 21
2.50999
  0
LINE
  8
0
 10
66
 20
2.50999
 11
66.2
 21
2.50999
  0
LINE
  8
0
 10
66.2
 20
2.50999
 11
66.2
 21
0.00999451
  0
LINE
  8
0
 10
66.2
 20
0.00999451
 11
66
 21
0.00999451
  0
LINE
  8
0
 10
156
 20
0.00999451
 11
156
 21
2.50999
  0
LINE
  8
0
 10
156
 20
2.50999
 11
156.2
 21
2.50999
  0
LINE
  8
0
 10
156.2
 20
2.50999
 11
156.2
 21
0.00999451
  0
LINE
  8
0
 10
156.2
 20
0.00999451
 11
156
 21
0.00999451
  0
LINE
  8
0
 10
86
 20
0.00999451
 11
86
 21
2.50999
  0
LINE
  8
0
 10
86
 20
2.50999
 11
86.2
 21
2.50999
  0
LINE
  8
0
 10
86.2
 20
2.50999
 11
86.2
 21
0.00999451
  0
LINE
  8
0
 10
86.2
 20
0.00999451
 11
86
 21
0.00999451
  0
LINE
  8
0
 10
96
 20
0.00999451
 11
96
 21
2.50999
  0
LINE
  8
0
 10
96
 20
2.50999
 11
96.2
 21
2.50999
  0
LINE
  8
0
 10
96.2
 20
2.50999
 11
96.2
 21
0.00999451
  0
LINE
  8
0
 10
96.2
 20
0.00999451
 11
96
 21
0.00999451
  0
LINE
  8
0
 10
142
 20
0.00999451
 11
142
 21
1.50999
  0
LINE
  8
0
 10
142
 20
1.50999
 11
142.2
 21
1.50999
  0
LINE
  8
0
 10
142.2
 20
1.50999
 11
142.2
 21
0.00999451
  0
LINE
  8
0
 10
142.2
 20
0.00999451
 11
142
 21
0.00999451
  0
LINE
  8
0
 10
150
 20
0.00999451
 11
150
 21
1.50999
  0
LINE
  8
0
 10
150
 20
1.50999
 11
150.2
 21
1.50999
  0
LINE
  8
0
 10
150.2
 20
1.50999
 11
150.2
 21
0.00999451
  0
LINE
  8
0
 10
150.2
 20
0.00999451
 11
150
 21
0.00999451
  0
LINE
  8
0
 10
132
 20
0.00999451
 11
132
 21
1.50999
  0
LINE
  8
0
 10
132
 20
1.50999
 11
132.2
 21
1.50999
  0
LINE
  8
0
 10
132.2
 20
1.50999
 11
132.2
 21
0.00999451
  0
LINE
  8
0
 10
132.2
 20
0.00999451
 11
132
 21
0.00999451
  0
LINE
  8
0
 10
133
 20
0.00999451
 11
133
 21
1.50999
  0
LINE
  8
0
 10
133
 20
1.50999
 11
133.2
 21
1.50999
  0
LINE
  8
0
 10
133.2
 20
1.50999
 11
133.2
 21
0.00999451
  0
LINE
  8
0
 10
133.2
 20
0.00999451
 11
133
 21
0.00999451
  0
LINE
  8
0
 10
134
 20
0.00999451
 11
134
 21
1.50999
  0
LINE
  8
0
 10
134
 20
1.50999
 11
134.2
 21
1.50999
  0
LINE
  8
0
 10
134.2
 20
1.50999
 11
134.2
 21
0.00999451
  0
LINE
  8
0
 10
134.2
 20
0.00999451
 11
134
 21
0.00999451
  0
LINE
  8
0
 10
135
 20
0.00999451
 11
135
 21
1.50999
  0
LINE
  8
0
 10
135
 20
1.50999
 11
135.2
 21
1.50999
  0
LINE
  8
0
 10
135.2
 20
1.50999
 11
135.2
 21
0.00999451
  0
LINE
  8
0
 10
135.2
 20
0.00999451
 11
135
 21
0.00999451
  0
LINE
  8
0
 10
137
 20
0.00999451
 11
137
 21
1.50999
  0
LINE
  8
0
 10
137
 20
1.50999
 11
137.2
 21
1.50999
  0
LINE
  8
0
 10
137.2
 20
1.50999
 11
137.2
 21
0.00999451
  0
LINE
  8
0
 10
137.2
 20
0.00999451
 11
137
 21
0.00999451
  0
LINE
  8
0
 10
138
 20
0.00999451
 11
138
 21
1.50999
  0
LINE
  8
0
 10
138
 20
1.50999
 11
138.2
 21
1.50999
  0
LINE
  8
0
 10
138.2
 20
1.50999
 11
138.2
 21
0.00999451
  0
LINE
  8
0
 10
138.2
 20
0.00999451
 11
138
 21
0.00999451
  0
LINE
  8
0
 10
139
 20
0.00999451
 11
139
 21
1.50999
  0
LINE
  8
0
 10
139
 20
1.50999
 11
139.2
 21
1.50999
  0
LINE
  8
0
 10
139.2
 20
1.50999
 11
139.2
 21
0.00999451
  0
LINE
  8
0
 10
139.2
 20
0.00999451
 11
139
 21
0.00999451
  0
LINE
  8
0
 10
140
 20
0.00999451
 11
140
 21
1.50999
  0
LINE
  8
0
 10
140
 20
1.50999
 11
140.2
 21
1.50999
  0
LINE
  8
0
 10
140.2
 20
1.50999
 11
140.2
 21
0.00999451
  0
LINE
  8
0
 10
140.2
 20
0.00999451
 11
140
 21
0.00999451
  0
LINE
  8
0
 10
129
 20
0.00999451
 11
129
 21
1.50999
  0
LINE
  8
0
 10
129
 20
1.50999
 11
129.2
 21
1.50999
  0
LINE
  8
0
 10
129.2
 20
1.50999
 11
129.2
 21
0.00999451
  0
LINE
  8
0
 10
129.2
 20
0.00999451
 11
129
 21
0.00999451
  0
LINE
  8
0
 10
130
 20
0.00999451
 11
130
 21
1.50999
  0
LINE
  8
0
 10
130
 20
1.50999
 11
130.2
 21
1.50999
  0
LINE
  8
0
 10
130.2
 20
1.50999
 11
130.2
 21
0.00999451
  0
LINE
  8
0
 10
130.2
 20
0.00999451
 11
130
 21
0.00999451
  0
LINE
  8
0
 10
143
 20
0.00999451
 11
143
 21
1.50999
  0
LINE
  8
0
 10
143
 20
1.50999
 11
143.2
 21
1.50999
  0
LINE
  8
0
 10
143.2
 20
1.50999
 11
143.2
 21
0.00999451
  0
LINE
  8
0
 10
143.2
 20
0.00999451
 11
143
 21
0.00999451
  0
LINE
  8
0
 10
144
 20
0.00999451
 11
144
 21
1.50999
  0
LINE
  8
0
 10
144
 20
1.50999
 11
144.2
 21
1.50999
  0
LINE
  8
0
 10
144.2
 20
1.50999
 11
144.2
 21
0.00999451
  0
LINE
  8
0
 10
144.2
 20
0.00999451
 11
144
 21
0.00999451
  0
LINE
  8
0
 10
145
 20
0.00999451
 11
145
 21
1.50999
  0
LINE
  8
0
 10
145
 20
1.50999
 11
145.2
 21
1.50999
  0
LINE
  8
0
 10
145.2
 20
1.50999
 11
145.2
 21
0.00999451
  0
LINE
  8
0
 10
145.2
 20
0.00999451
 11
145
 21
0.00999451
  0
LINE
  8
0
 10
147
 20
0.00999451
 11
147
 21
1.50999
  0
LINE
  8
0
 10
147
 20
1.50999
 11
147.2
 21
1.50999
  0
LINE
  8
0
 10
147.2
 20
1.50999
 11
147.2
 21
0.00999451
  0
LINE
  8
0
 10
147.2
 20
0.00999451
 11
147
 21
0.00999451
  0
LINE
  8
0
 10
148
 20
0.00999451
 11
148
 21
1.50999
  0
LINE
  8
0
 10
148
 20
1.50999
 11
148.2
 21
1.50999
  0
LINE
  8
0
 10
148.2
 20
1.50999
 11
148.2
 21
0.00999451
  0
LINE
  8
0
 10
148.2
 20
0.00999451
 11
148
 21
0.00999451
  0
LINE
  8
0
 10
149
 20
0.00999451
 11
149
 21
1.50999
  0
LINE
  8
0
 10
149
 20
1.50999
 11
149.2
 21
1.50999
  0
LINE
  8
0
 10
149.2
 20
1.50999
 11
149.2
 21
0.00999451
  0
LINE
  8
0
 10
149.2
 20
0.00999451
 11
149
 21
0.00999451
  0
LINE
  8
0
 10
117
 20
0.00999451
 11
117
 21
1.50999
  0
LINE
  8
0
 10
117
 20
1.50999
 11
117.2
 21
1.50999
  0
LINE
  8
0
 10
117.2
 20
1.50999
 11
117.2
 21
0.00999451
  0
LINE
  8
0
 10
117.2
 20
0.00999451
 11
117
 21
0.00999451
  0
LINE
  8
0
 10
153
 20
0.00999451
 11
153
 21
1.50999
  0
LINE
  8
0
 10
153
 20
1.50999
 11
153.2
 21
1.50999
  0
LINE
  8
0
 10
153.2
 20
1.50999
 11
153.2
 21
0.00999451
  0
LINE
  8
0
 10
153.2
 20
0.00999451
 11
153
 21
0.00999451
  0
LINE
  8
0
 10
118
 20
0.00999451
 11
118
 21
1.50999
  0
LINE
  8
0
 10
118
 20
1.50999
 11
118.2
 21
1.50999
  0
LINE
  8
0
 10
118.2
 20
1.50999
 11
118.2
 21
0.00999451
  0
LINE
  8
0
 10
118.2
 20
0.00999451
 11
118
 21
0.00999451
  0
LINE
  8
0
 10
107
 20
0.00999451
 11
107
 21
1.50999
  0
LINE
  8
0
 10
107
 20
1.50999
 11
107.2
 21
1.50999
  0
LINE
  8
0
 10
107.2
 20
1.50999
 11
107.2
 21
0.00999451
  0
LINE
  8
0
 10
107.2
 20
0.00999451
 11
107
 21
0.00999451
  0
LINE
  8
0
 10
108
 20
0.00999451
 11
108
 21
1.50999
  0
LINE
  8
0
 10
108
 20
1.50999
 11
108.2
 21
1.50999
  0
LINE
  8
0
 10
108.2
 20
1.50999
 11
108.2
 21
0.00999451
  0
LINE
  8
0
 10
108.2
 20
0.00999451
 11
108
 21
0.00999451
  0
LINE
  8
0
 10
109
 20
0.00999451
 11
109
 21
1.50999
  0
LINE
  8
0
 10
109
 20
1.50999
 11
109.2
 21
1.50999
  0
LINE
  8
0
 10
109.2
 20
1.50999
 11
109.2
 21
0.00999451
  0
LINE
  8
0
 10
109.2
 20
0.00999451
 11
109
 21
0.00999451
  0
LINE
  8
0
 10
110
 20
0.00999451
 11
110
 21
1.50999
  0
LINE
  8
0
 10
110
 20
1.50999
 11
110.2
 21
1.50999
  0
LINE
  8
0
 10
110.2
 20
1.50999
 11
110.2
 21
0.00999451
  0
LINE
  8
0
 10
110.2
 20
0.00999451
 11
110
 21
0.00999451
  0
LINE
  8
0
 10
112
 20
0.00999451
 11
112
 21
1.50999
  0
LINE
  8
0
 10
112
 20
1.50999
 11
112.2
 21
1.50999
  0
LINE
  8
0
 10
112.2
 20
1.50999
 11
112.2
 21
0.00999451
  0
LINE
  8
0
 10
112.2
 20
0.00999451
 11
112
 21
0.00999451
  0
LINE
  8
0
 10
113
 20
0.00999451
 11
113
 21
1.50999
  0
LINE
  8
0
 10
113
 20
1.50999
 11
113.2
 21
1.50999
  0
LINE
  8
0
 10
113.2
 20
1.50999
 11
113.2
 21
0.00999451
  0
LINE
  8
0
 10
113.2
 20
0.00999451
 11
113
 21
0.00999451
  0
LINE
  8
0
 10
114
 20
0.00999451
 11
114
 21
1.50999
  0
LINE
  8
0
 10
114
 20
1.50999
 11
114.2
 21
1.50999
  0
LINE
  8
0
 10
114.2
 20
1.50999
 11
114.2
 21
0.00999451
  0
LINE
  8
0
 10
114.2
 20
0.00999451
 11
114
 21
0.00999451
  0
LINE
  8
0
 10
115
 20
0.00999451
 11
115
 21
1.50999
  0
LINE
  8
0
 10
115
 20
1.50999
 11
115.2
 21
1.50999
  0
LINE
  8
0
 10
115.2
 20
1.50999
 11
115.2
 21
0.00999451
  0
LINE
  8
0
 10
115.2
 20
0.00999451
 11
115
 21
0.00999451
  0
LINE
  8
0
 10
128
 20
0.00999451
 11
128
 21
1.50999
  0
LINE
  8
0
 10
128
 20
1.50999
 11
128.2
 21
1.50999
  0
LINE
  8
0
 10
128.2
 20
1.50999
 11
128.2
 21
0.00999451
  0
LINE
  8
0
 10
128.2
 20
0.00999451
 11
128
 21
0.00999451
  0
LINE
  8
0
 10
154
 20
0.00999451
 11
154
 21
1.50999
  0
LINE
  8
0
 10
154
 20
1.50999
 11
154.2
 21
1.50999
  0
LINE
  8
0
 10
154.2
 20
1.50999
 11
154.2
 21
0.00999451
  0
LINE
  8
0
 10
154.2
 20
0.00999451
 11
154
 21
0.00999451
  0
LINE
  8
0
 10
119
 20
0.00999451
 11
119
 21
1.50999
  0
LINE
  8
0
 10
119
 20
1.50999
 11
119.2
 21
1.50999
  0
LINE
  8
0
 10
119.2
 20
1.50999
 11
119.2
 21
0.00999451
  0
LINE
  8
0
 10
119.2
 20
0.00999451
 11
119
 21
0.00999451
  0
LINE
  8
0
 10
120
 20
0.00999451
 11
120
 21
1.50999
  0
LINE
  8
0
 10
120
 20
1.50999
 11
120.2
 21
1.50999
  0
LINE
  8
0
 10
120.2
 20
1.50999
 11
120.2
 21
0.00999451
  0
LINE
  8
0
 10
120.2
 20
0.00999451
 11
120
 21
0.00999451
  0
LINE
  8
0
 10
122
 20
0.00999451
 11
122
 21
1.50999
  0
LINE
  8
0
 10
122
 20
1.50999
 11
122.2
 21
1.50999
  0
LINE
  8
0
 10
122.2
 20
1.50999
 11
122.2
 21
0.00999451
  0
LINE
  8
0
 10
122.2
 20
0.00999451
 11
122
 21
0.00999451
  0
LINE
  8
0
 10
123
 20
0.00999451
 11
123
 21
1.50999
  0
LINE
  8
0
 10
123
 20
1.50999
 11
123.2
 21
1.50999
  0
LINE
  8
0
 10
123.2
 20
1.50999
 11
123.2
 21
0.00999451
  0
LINE
  8
0
 10
123.2
 20
0.00999451
 11
123
 21
0.00999451
  0
LINE
  8
0
 10
124
 20
0.00999451
 11
124
 21
1.50999
  0
LINE
  8
0
 10
124
 20
1.50999
 11
124.2
 21
1.50999
  0
LINE
  8
0
 10
124.2
 20
1.50999
 11
124.2
 21
0.00999451
  0
LINE
  8
0
 10
124.2
 20
0.00999451
 11
124
 21
0.00999451
  0
LINE
  8
0
 10
125
 20
0.00999451
 11
125
 21
1.50999
  0
LINE
  8
0
 10
125
 20
1.50999
 11
125.2
 21
1.50999
  0
LINE
  8
0
 10
125.2
 20
1.50999
 11
125.2
 21
0.00999451
  0
LINE
  8
0
 10
125.2
 20
0.00999451
 11
125
 21
0.00999451
  0
LINE
  8
0
 10
127
 20
0.00999451
 11
127
 21
1.50999
  0
LINE
  8
0
 10
127
 20
1.50999
 11
127.2
 21
1.50999
  0
LINE
  8
0
 10
127.2
 20
1.50999
 11
127.2
 21
0.00999451
  0
LINE
  8
0
 10
127.2
 20
0.00999451
 11
127
 21
0.00999451
  0
LINE
  8
0
 10
187
 20
0.00999451
 11
187
 21
1.50999
  0
LINE
  8
0
 10
187
 20
1.50999
 11
187.2
 21
1.50999
  0
LINE
  8
0
 10
187.2
 20
1.50999
 11
187.2
 21
0.00999451
  0
LINE
  8
0
 10
187.2
 20
0.00999451
 11
187
 21
0.00999451
  0
LINE
  8
0
 10
188
 20
0.00999451
 11
188
 21
1.50999
  0
LINE
  8
0
 10
188
 20
1.50999
 11
188.2
 21
1.50999
  0
LINE
  8
0
 10
188.2
 20
1.50999
 11
188.2
 21
0.00999451
  0
LINE
  8
0
 10
188.2
 20
0.00999451
 11
188
 21
0.00999451
  0
LINE
  8
0
 10
189
 20
0.00999451
 11
189
 21
1.50999
  0
LINE
  8
0
 10
189
 20
1.50999
 11
189.2
 21
1.50999
  0
LINE
  8
0
 10
189.2
 20
1.50999
 11
189.2
 21
0.00999451
  0
LINE
  8
0
 10
189.2
 20
0.00999451
 11
189
 21
0.00999451
  0
LINE
  8
0
 10
178
 20
0.00999451
 11
178
 21
1.50999
  0
LINE
  8
0
 10
178
 20
1.50999
 11
178.2
 21
1.50999
  0
LINE
  8
0
 10
178.2
 20
1.50999
 11
178.2
 21
0.00999451
  0
LINE
  8
0
 10
178.2
 20
0.00999451
 11
178
 21
0.00999451
  0
LINE
  8
0
 10
179
 20
0.00999451
 11
179
 21
1.50999
  0
LINE
  8
0
 10
179
 20
1.50999
 11
179.2
 21
1.50999
  0
LINE
  8
0
 10
179.2
 20
1.50999
 11
179.2
 21
0.00999451
  0
LINE
  8
0
 10
179.2
 20
0.00999451
 11
179
 21
0.00999451
  0
LINE
  8
0
 10
180
 20
0.00999451
 11
180
 21
1.50999
  0
LINE
  8
0
 10
180
 20
1.50999
 11
180.2
 21
1.50999
  0
LINE
  8
0
 10
180.2
 20
1.50999
 11
180.2
 21
0.00999451
  0
LINE
  8
0
 10
180.2
 20
0.00999451
 11
180
 21
0.00999451
  0
LINE
  8
0
 10
182
 20
0.00999451
 11
182
 21
1.50999
  0
LINE
  8
0
 10
182
 20
1.50999
 11
182.2
 21
1.50999
  0
LINE
  8
0
 10
182.2
 20
1.50999
 11
182.2
 21
0.00999451
  0
LINE
  8
0
 10
182.2
 20
0.00999451
 11
182
 21
0.00999451
  0
LINE
  8
0
 10
183
 20
0.00999451
 11
183
 21
1.50999
  0
LINE
  8
0
 10
183
 20
1.50999
 11
183.2
 21
1.50999
  0
LINE
  8
0
 10
183.2
 20
1.50999
 11
183.2
 21
0.00999451
  0
LINE
  8
0
 10
183.2
 20
0.00999451
 11
183
 21
0.00999451
  0
LINE
  8
0
 10
184
 20
0.00999451
 11
184
 21
1.50999
  0
LINE
  8
0
 10
184
 20
1.50999
 11
184.2
 21
1.50999
  0
LINE
  8
0
 10
184.2
 20
1.50999
 11
184.2
 21
0.00999451
  0
LINE
  8
0
 10
184.2
 20
0.00999451
 11
184
 21
0.00999451
  0
LINE
  8
0
 10
185
 20
0.00999451
 11
185
 21
1.50999
  0
LINE
  8
0
 10
185
 20
1.50999
 11
185.2
 21
1.50999
  0
LINE
  8
0
 10
185.2
 20
1.50999
 11
185.2
 21
0.00999451
  0
LINE
  8
0
 10
185.2
 20
0.00999451
 11
185
 21
0.00999451
  0
LINE
  8
0
 10
175
 20
0.00999451
 11
175
 21
1.50999
  0
LINE
  8
0
 10
175
 20
1.50999
 11
175.2
 21
1.50999
  0
LINE
  8
0
 10
175.2
 20
1.50999
 11
175.2
 21
0.00999451
  0
LINE
  8
0
 10
175.2
 20
0.00999451
 11
175
 21
0.00999451
  0
LINE
  8
0
 10
177
 20
0.00999451
 11
177
 21
1.50999
  0
LINE
  8
0
 10
177
 20
1.50999
 11
177.2
 21
1.50999
  0
LINE
  8
0
 10
177.2
 20
1.50999
 11
177.2
 21
0.00999451
  0
LINE
  8
0
 10
177.2
 20
0.00999451
 11
177
 21
0.00999451
  0
LINE
  8
0
 10
190
 20
0.00999451
 11
190
 21
1.50999
  0
LINE
  8
0
 10
190
 20
1.50999
 11
190.2
 21
1.50999
  0
LINE
  8
0
 10
190.2
 20
1.50999
 11
190.2
 21
0.00999451
  0
LINE
  8
0
 10
190.2
 20
0.00999451
 11
190
 21
0.00999451
  0
LINE
  8
0
 10
192
 20
0.00999451
 11
192
 21
1.50999
  0
LINE
  8
0
 10
192
 20
1.50999
 11
192.2
 21
1.50999
  0
LINE
  8
0
 10
192.2
 20
1.50999
 11
192.2
 21
0.00999451
  0
LINE
  8
0
 10
192.2
 20
0.00999451
 11
192
 21
0.00999451
  0
LINE
  8
0
 10
193
 20
0.00999451
 11
193
 21
1.50999
  0
LINE
  8
0
 10
193
 20
1.50999
 11
193.2
 21
1.50999
  0
LINE
  8
0
 10
193.2
 20
1.50999
 11
193.2
 21
0.00999451
  0
LINE
  8
0
 10
193.2
 20
0.00999451
 11
193
 21
0.00999451
  0
LINE
  8
0
 10
194
 20
0.00999451
 11
194
 21
1.50999
  0
LINE
  8
0
 10
194
 20
1.50999
 11
194.2
 21
1.50999
  0
LINE
  8
0
 10
194.2
 20
1.50999
 11
194.2
 21
0.00999451
  0
LINE
  8
0
 10
194.2
 20
0.00999451
 11
194
 21
0.00999451
  0
LINE
  8
0
 10
195
 20
0.00999451
 11
195
 21
1.50999
  0
LINE
  8
0
 10
195
 20
1.50999
 11
195.2
 21
1.50999
  0
LINE
  8
0
 10
195.2
 20
1.50999
 11
195.2
 21
0.00999451
  0
LINE
  8
0
 10
195.2
 20
0.00999451
 11
195
 21
0.00999451
  0
LINE
  8
0
 10
197
 20
0.00999451
 11
197
 21
1.50999
  0
LINE
  8
0
 10
197
 20
1.50999
 11
197.2
 21
1.50999
  0
LINE
  8
0
 10
197.2
 20
1.50999
 11
197.2
 21
0.00999451
  0
LINE
  8
0
 10
197.2
 20
0.00999451
 11
197
 21
0.00999451
  0
LINE
  8
0
 10
198
 20
0.00999451
 11
198
 21
1.50999
  0
LINE
  8
0
 10
198
 20
1.50999
 11
198.2
 21
1.50999
  0
LINE
  8
0
 10
198.2
 20
1.50999
 11
198.2
 21
0.00999451
  0
LINE
  8
0
 10
198.2
 20
0.00999451
 11
198
 21
0.00999451
  0
LINE
  8
0
 10
199
 20
0.00999451
 11
199
 21
1.50999
  0
LINE
  8
0
 10
199
 20
1.50999
 11
199.2
 21
1.50999
  0
LINE
  8
0
 10
199.2
 20
1.50999
 11
199.2
 21
0.00999451
  0
LINE
  8
0
 10
199.2
 20
0.00999451
 11
199
 21
0.00999451
  0
LINE
  8
0
 10
164
 20
0.00999451
 11
164
 21
1.50999
  0
LINE
  8
0
 10
164
 20
1.50999
 11
164.2
 21
1.50999
  0
LINE
  8
0
 10
164.2
 20
1.50999
 11
164.2
 21
0.00999451
  0
LINE
  8
0
 10
164.2
 20
0.00999451
 11
164
 21
0.00999451
  0
LINE
  8
0
 10
155
 20
0.00999451
 11
155
 21
1.50999
  0
LINE
  8
0
 10
155
 20
1.50999
 11
155.2
 21
1.50999
  0
LINE
  8
0
 10
155.2
 20
1.50999
 11
155.2
 21
0.00999451
  0
LINE
  8
0
 10
155.2
 20
0.00999451
 11
155
 21
0.00999451
  0
LINE
  8
0
 10
157
 20
0.00999451
 11
157
 21
1.50999
  0
LINE
  8
0
 10
157
 20
1.50999
 11
157.2
 21
1.50999
  0
LINE
  8
0
 10
157.2
 20
1.50999
 11
157.2
 21
0.00999451
  0
LINE
  8
0
 10
157.2
 20
0.00999451
 11
157
 21
0.00999451
  0
LINE
  8
0
 10
158
 20
0.00999451
 11
158
 21
1.50999
  0
LINE
  8
0
 10
158
 20
1.50999
 11
158.2
 21
1.50999
  0
LINE
  8
0
 10
158.2
 20
1.50999
 11
158.2
 21
0.00999451
  0
LINE
  8
0
 10
158.2
 20
0.00999451
 11
158
 21
0.00999451
  0
LINE
  8
0
 10
159
 20
0.00999451
 11
159
 21
1.50999
  0
LINE
  8
0
 10
159
 20
1.50999
 11
159.2
 21
1.50999
  0
LINE
  8
0
 10
159.2
 20
1.50999
 11
159.2
 21
0.00999451
  0
LINE
  8
0
 10
159.2
 20
0.00999451
 11
159
 21
0.00999451
  0
LINE
  8
0
 10
160
 20
0.00999451
 11
160
 21
1.50999
  0
LINE
  8
0
 10
160
 20
1.50999
 11
160.2
 21
1.50999
  0
LINE
  8
0
 10
160.2
 20
1.50999
 11
160.2
 21
0.00999451
  0
LINE
  8
0
 10
160.2
 20
0.00999451
 11
160
 21
0.00999451
  0
LINE
  8
0
 10
162
 20
0.00999451
 11
162
 21
1.50999
  0
LINE
  8
0
 10
162
 20
1.50999
 11
162.2
 21
1.50999
  0
LINE
  8
0
 10
162.2
 20
1.50999
 11
162.2
 21
0.00999451
  0
LINE
  8
0
 10
162.2
 20
0.00999451
 11
162
 21
0.00999451
  0
LINE
  8
0
 10
163
 20
0.00999451
 11
163
 21
1.50999
  0
LINE
  8
0
 10
163
 20
1.50999
 11
163.2
 21
1.50999
  0
LINE
  8
0
 10
163.2
 20
1.50999
 11
163.2
 21
0.00999451
  0
LINE
  8
0
 10
163.2
 20
0.00999451
 11
163
 21
0.00999451
  0
LINE
  8
0
 10
152
 20
0.00999451
 11
152
 21
1.50999
  0
LINE
  8
0
 10
152
 20
1.50999
 11
152.2
 21
1.50999
  0
LINE
  8
0
 10
152.2
 20
1.50999
 11
152.2
 21
0.00999451
  0
LINE
  8
0
 10
152.2
 20
0.00999451
 11
152
 21
0.00999451
  0
LINE
  8
0
 10
165
 20
0.00999451
 11
165
 21
1.50999
  0
LINE
  8
0
 10
165
 20
1.50999
 11
165.2
 21
1.50999
  0
LINE
  8
0
 10
165.2
 20
1.50999
 11
165.2
 21
0.00999451
  0
LINE
  8
0
 10
165.2
 20
0.00999451
 11
165
 21
0.00999451
  0
LINE
  8
0
 10
167
 20
0.00999451
 11
167
 21
1.50999
  0
LINE
  8
0
 10
167
 20
1.50999
 11
167.2
 21
1.50999
  0
LINE
  8
0
 10
167.2
 20
1.50999
 11
167.2
 21
0.00999451
  0
LINE
  8
0
 10
167.2
 20
0.00999451
 11
167
 21
0.00999451
  0
LINE
  8
0
 10
168
 20
0.00999451
 11
168
 21
1.50999
  0
LINE
  8
0
 10
168
 20
1.50999
 11
168.2
 21
1.50999
  0
LINE
  8
0
 10
168.2
 20
1.50999
 11
168.2
 21
0.00999451
  0
LINE
  8
0
 10
168.2
 20
0.00999451
 11
168
 21
0.00999451
  0
LINE
  8
0
 10
169
 20
0.00999451
 11
169
 21
1.50999
  0
LINE
  8
0
 10
169
 20
1.50999
 11
169.2
 21
1.50999
  0
LINE
  8
0
 10
169.2
 20
1.50999
 11
169.2
 21
0.00999451
  0
LINE
  8
0
 10
169.2
 20
0.00999451
 11
169
 21
0.00999451
  0
LINE
  8
0
 10
170
 20
0.00999451
 11
170
 21
1.50999
  0
LINE
  8
0
 10
170
 20
1.50999
 11
170.2
 21
1.50999
  0
LINE
  8
0
 10
170.2
 20
1.50999
 11
170.2
 21
0.00999451
  0
LINE
  8
0
 10
170.2
 20
0.00999451
 11
170
 21
0.00999451
  0
LINE
  8
0
 10
172
 20
0.00999451
 11
172
 21
1.50999
  0
LINE
  8
0
 10
172
 20
1.50999
 11
172.2
 21
1.50999
  0
LINE
  8
0
 10
172.2
 20
1.50999
 11
172.2
 21
0.00999451
  0
LINE
  8
0
 10
172.2
 20
0.00999451
 11
172
 21
0.00999451
  0
LINE
  8
0
 10
173
 20
0.00999451
 11
173
 21
1.50999
  0
LINE
  8
0
 10
173
 20
1.50999
 11
173.2
 21
1.50999
  0
LINE
  8
0
 10
173.2
 20
1.50999
 11
173.2
 21
0.00999451
  0
LINE
  8
0
 10
173.2
 20
0.00999451
 11
173
 21
0.00999451
  0
LINE
  8
0
 10
174
 20
0.00999451
 11
174
 21
1.50999
  0
LINE
  8
0
 10
174
 20
1.50999
 11
174.2
 21
1.50999
  0
LINE
  8
0
 10
174.2
 20
1.50999
 11
174.2
 21
0.00999451
  0
LINE
  8
0
 10
174.2
 20
0.00999451
 11
174
 21
0.00999451
  0
LINE
  8
0
 10
45
 20
0.00999451
 11
45
 21
1.50999
  0
LINE
  8
0
 10
45
 20
1.50999
 11
45.2
 21
1.50999
  0
LINE
  8
0
 10
45.2
 20
1.50999
 11
45.2
 21
0.00999451
  0
LINE
  8
0
 10
45.2
 20
0.00999451
 11
45
 21
0.00999451
  0
LINE
  8
0
 10
47
 20
0.00999451
 11
47
 21
1.50999
  0
LINE
  8
0
 10
47
 20
1.50999
 11
47.2
 21
1.50999
  0
LINE
  8
0
 10
47.2
 20
1.50999
 11
47.2
 21
0.00999451
  0
LINE
  8
0
 10
47.2
 20
0.00999451
 11
47
 21
0.00999451
  0
LINE
  8
0
 10
35
 20
0.00999451
 11
35
 21
1.50999
  0
LINE
  8
0
 10
35
 20
1.50999
 11
35.2
 21
1.50999
  0
LINE
  8
0
 10
35.2
 20
1.50999
 11
35.2
 21
0.00999451
  0
LINE
  8
0
 10
35.2
 20
0.00999451
 11
35
 21
0.00999451
  0
LINE
  8
0
 10
37
 20
0.00999451
 11
37
 21
1.50999
  0
LINE
  8
0
 10
37
 20
1.50999
 11
37.2
 21
1.50999
  0
LINE
  8
0
 10
37.2
 20
1.50999
 11
37.2
 21
0.00999451
  0
LINE
  8
0
 10
37.2
 20
0.00999451
 11
37
 21
0.00999451
  0
LINE
  8
0
 10
38
 20
0.00999451
 11
38
 21
1.50999
  0
LINE
  8
0
 10
38
 20
1.50999
 11
38.2
 21
1.50999
  0
LINE
  8
0
 10
38.2
 20
1.50999
 11
38.2
 21
0.00999451
  0
LINE
  8
0
 10
38.2
 20
0.00999451
 11
38
 21
0.00999451
  0
LINE
  8
0
 10
39
 20
0.00999451
 11
39
 21
1.50999
  0
LINE
  8
0
 10
39
 20
1.50999
 11
39.2
 21
1.50999
  0
LINE
  8
0
 10
39.2
 20
1.50999
 11
39.2
 21
0.00999451
  0
LINE
  8
0
 10
39.2
 20
0.00999451
 11
39
 21
0.00999451
  0
LINE
  8
0
 10
40
 20
0.00999451
 11
40
 21
1.50999
  0
LINE
  8
0
 10
40
 20
1.50999
 11
40.2
 21
1.50999
  0
LINE
  8
0
 10
40.2
 20
1.50999
 11
40.2
 21
0.00999451
  0
LINE
  8
0
 10
40.2
 20
0.00999451
 11
40
 21
0.00999451
  0
LINE
  8
0
 10
42
 20
0.00999451
 11
42
 21
1.50999
  0
LINE
  8
0
 10
42
 20
1.50999
 11
42.2
 21
1.50999
  0
LINE
  8
0
 10
42.2
 20
1.50999
 11
42.2
 21
0.00999451
  0
LINE
  8
0
 10
42.2
 20
0.00999451
 11
42
 21
0.00999451
  0
LINE
  8
0
 10
43
 20
0.00999451
 11
43
 21
1.50999
  0
LINE
  8
0
 10
43
 20
1.50999
 11
43.2
 21
1.50999
  0
LINE
  8
0
 10
43.2
 20
1.50999
 11
43.2
 21
0.00999451
  0
LINE
  8
0
 10
43.2
 20
0.00999451
 11
43
 21
0.00999451
  0
LINE
  8
0
 10
44
 20
0.00999451
 11
44
 21
1.50999
  0
LINE
  8
0
 10
44
 20
1.50999
 11
44.2
 21
1.50999
  0
LINE
  8
0
 10
44.2
 20
1.50999
 11
44.2
 21
0.00999451
  0
LINE
  8
0
 10
44.2
 20
0.00999451
 11
44
 21
0.00999451
  0
LINE
  8
0
 10
32
 20
0.00999451
 11
32
 21
1.50999
  0
LINE
  8
0
 10
32
 20
1.50999
 11
32.2
 21
1.50999
  0
LINE
  8
0
 10
32.2
 20
1.50999
 11
32.2
 21
0.00999451
  0
LINE
  8
0
 10
32.2
 20
0.00999451
 11
32
 21
0.00999451
  0
LINE
  8
0
 10
58
 20
0.00999451
 11
58
 21
1.50999
  0
LINE
  8
0
 10
58
 20
1.50999
 11
58.2
 21
1.50999
  0
LINE
  8
0
 10
58.2
 20
1.50999
 11
58.2
 21
0.00999451
  0
LINE
  8
0
 10
58.2
 20
0.00999451
 11
58
 21
0.00999451
  0
LINE
  8
0
 10
48
 20
0.00999451
 11
48
 21
1.50999
  0
LINE
  8
0
 10
48
 20
1.50999
 11
48.2
 21
1.50999
  0
LINE
  8
0
 10
48.2
 20
1.50999
 11
48.2
 21
0.00999451
  0
LINE
  8
0
 10
48.2
 20
0.00999451
 11
48
 21
0.00999451
  0
LINE
  8
0
 10
49
 20
0.00999451
 11
49
 21
1.50999
  0
LINE
  8
0
 10
49
 20
1.50999
 11
49.2
 21
1.50999
  0
LINE
  8
0
 10
49.2
 20
1.50999
 11
49.2
 21
0.00999451
  0
LINE
  8
0
 10
49.2
 20
0.00999451
 11
49
 21
0.00999451
  0
LINE
  8
0
 10
50
 20
0.00999451
 11
50
 21
1.50999
  0
LINE
  8
0
 10
50
 20
1.50999
 11
50.2
 21
1.50999
  0
LINE
  8
0
 10
50.2
 20
1.50999
 11
50.2
 21
0.00999451
  0
LINE
  8
0
 10
50.2
 20
0.00999451
 11
50
 21
0.00999451
  0
LINE
  8
0
 10
52
 20
0.00999451
 11
52
 21
1.50999
  0
LINE
  8
0
 10
52
 20
1.50999
 11
52.2
 21
1.50999
  0
LINE
  8
0
 10
52.2
 20
1.50999
 11
52.2
 21
0.00999451
  0
LINE
  8
0
 10
52.2
 20
0.00999451
 11
52
 21
0.00999451
  0
LINE
  8
0
 10
53
 20
0.00999451
 11
53
 21
1.50999
  0
LINE
  8
0
 10
53
 20
1.50999
 11
53.2
 21
1.50999
  0
LINE
  8
0
 10
53.2
 20
1.50999
 11
53.2
 21
0.00999451
  0
LINE
  8
0
 10
53.2
 20
0.00999451
 11
53
 21
0.00999451
  0
LINE
  8
0
 10
54
 20
0.00999451
 11
54
 21
1.50999
  0
LINE
  8
0
 10
54
 20
1.50999
 11
54.2
 21
1.50999
  0
LINE
  8
0
 10
54.2
 20
1.50999
 11
54.2
 21
0.00999451
  0
LINE
  8
0
 10
54.2
 20
0.00999451
 11
54
 21
0.00999451
  0
LINE
  8
0
 10
55
 20
0.00999451
 11
55
 21
1.50999
  0
LINE
  8
0
 10
55
 20
1.50999
 11
55.2
 21
1.50999
  0
LINE
  8
0
 10
55.2
 20
1.50999
 11
55.2
 21
0.00999451
  0
LINE
  8
0
 10
55.2
 20
0.00999451
 11
55
 21
0.00999451
  0
LINE
  8
0
 10
23
 20
0.00999451
 11
23
 21
1.50999
  0
LINE
  8
0
 10
23
 20
1.50999
 11
23.2
 21
1.50999
  0
LINE
  8
0
 10
23.2
 20
1.50999
 11
23.2
 21
0.00999451
  0
LINE
  8
0
 10
23.2
 20
0.00999451
 11
23
 21
0.00999451
  0
LINE
  8
0
 10
20
 20
0.00999451
 11
20
 21
1.50999
  0
LINE
  8
0
 10
20
 20
1.50999
 11
20.2
 21
1.50999
  0
LINE
  8
0
 10
20.2
 20
1.50999
 11
20.2
 21
0.00999451
  0
LINE
  8
0
 10
20.2
 20
0.00999451
 11
20
 21
0.00999451
  0
LINE
  8
0
 10
19
 20
0.00999451
 11
19
 21
1.50999
  0
LINE
  8
0
 10
19
 20
1.50999
 11
19.2
 21
1.50999
  0
LINE
  8
0
 10
19.2
 20
1.50999
 11
19.2
 21
0.00999451
  0
LINE
  8
0
 10
19.2
 20
0.00999451
 11
19
 21
0.00999451
  0
LINE
  8
0
 10
18
 20
0.00999451
 11
18
 21
1.50999
  0
LINE
  8
0
 10
18
 20
1.50999
 11
18.2
 21
1.50999
  0
LINE
  8
0
 10
18.2
 20
1.50999
 11
18.2
 21
0.00999451
  0
LINE
  8
0
 10
18.2
 20
0.00999451
 11
18
 21
0.00999451
  0
LINE
  8
0
 10
17
 20
0.00999451
 11
17
 21
1.50999
  0
LINE
  8
0
 10
17
 20
1.50999
 11
17.2
 21
1.50999
  0
LINE
  8
0
 10
17.2
 20
1.50999
 11
17.2
 21
0.00999451
  0
LINE
  8
0
 10
17.2
 20
0.00999451
 11
17
 21
0.00999451
  0
LINE
  8
0
 10
15
 20
0.00999451
 11
15
 21
1.50999
  0
LINE
  8
0
 10
15
 20
1.50999
 11
15.2
 21
1.50999
  0
LINE
  8
0
 10
15.2
 20
1.50999
 11
15.2
 21
0.00999451
  0
LINE
  8
0
 10
15.2
 20
0.00999451
 11
15
 21
0.00999451
  0
LINE
  8
0
 10
14
 20
0.00999451
 11
14
 21
1.50999
  0
LINE
  8
0
 10
14
 20
1.50999
 11
14.2
 21
1.50999
  0
LINE
  8
0
 10
14.2
 20
1.50999
 11
14.2
 21
0.00999451
  0
LINE
  8
0
 10
14.2
 20
0.00999451
 11
14
 21
0.00999451
  0
LINE
  8
0
 10
13
 20
0.00999451
 11
13
 21
1.50999
  0
LINE
  8
0
 10
13
 20
1.50999
 11
13.2
 21
1.50999
  0
LINE
  8
0
 10
13.2
 20
1.50999
 11
13.2
 21
0.00999451
  0
LINE
  8
0
 10
13.2
 20
0.00999451
 11
13
 21
0.00999451
  0
LINE
  8
0
 10
12
 20
0.00999451
 11
12
 21
1.50999
  0
LINE
  8
0
 10
12
 20
1.50999
 11
12.2
 21
1.50999
  0
LINE
  8
0
 10
12.2
 20
1.50999
 11
12.2
 21
0.00999451
  0
LINE
  8
0
 10
12.2
 20
0.00999451
 11
12
 21
0.00999451
  0
LINE
  8
0
 10
33
 20
0.00999451
 11
33
 21
1.50999
  0
LINE
  8
0
 10
33
 20
1.50999
 11
33.2
 21
1.50999
  0
LINE
  8
0
 10
33.2
 20
1.50999
 11
33.2
 21
0.00999451
  0
LINE
  8
0
 10
33.2
 20
0.00999451
 11
33
 21
0.00999451
  0
LINE
  8
0
 10
57
 20
0.00999451
 11
57
 21
1.50999
  0
LINE
  8
0
 10
57
 20
1.50999
 11
57.2
 21
1.50999
  0
LINE
  8
0
 10
57.2
 20
1.50999
 11
57.2
 21
0.00999451
  0
LINE
  8
0
 10
57.2
 20
0.00999451
 11
57
 21
0.00999451
  0
LINE
  8
0
 10
22
 20
0.00999451
 11
22
 21
1.50999
  0
LINE
  8
0
 10
22
 20
1.50999
 11
22.2
 21
1.50999
  0
LINE
  8
0
 10
22.2
 20
1.50999
 11
22.2
 21
0.00999451
  0
LINE
  8
0
 10
22.2
 20
0.00999451
 11
22
 21
0.00999451
  0
LINE
  8
0
 10
59
 20
0.00999451
 11
59
 21
1.50999
  0
LINE
  8
0
 10
59
 20
1.50999
 11
59.2
 21
1.50999
  0
LINE
  8
0
 10
59.2
 20
1.50999
 11
59.2
 21
0.00999451
  0
LINE
  8
0
 10
59.2
 20
0.00999451
 11
59
 21
0.00999451
  0
LINE
  8
0
 10
24
 20
0.00999451
 11
24
 21
1.50999
  0
LINE
  8
0
 10
24
 20
1.50999
 11
24.2
 21
1.50999
  0
LINE
  8
0
 10
24.2
 20
1.50999
 11
24.2
 21
0.00999451
  0
LINE
  8
0
 10
24.2
 20
0.00999451
 11
24
 21
0.00999451
  0
LINE
  8
0
 10
25
 20
0.00999451
 11
25
 21
1.50999
  0
LINE
  8
0
 10
25
 20
1.50999
 11
25.2
 21
1.50999
  0
LINE
  8
0
 10
25.2
 20
1.50999
 11
25.2
 21
0.00999451
  0
LINE
  8
0
 10
25.2
 20
0.00999451
 11
25
 21
0.00999451
  0
LINE
  8
0
 10
27
 20
0.00999451
 11
27
 21
1.50999
  0
LINE
  8
0
 10
27
 20
1.50999
 11
27.2
 21
1.50999
  0
LINE
  8
0
 10
27.2
 20
1.50999
 11
27.2
 21
0.00999451
  0
LINE
  8
0
 10
27.2
 20
0.00999451
 11
27
 21
0.00999451
  0
LINE
  8
0
 10
28
 20
0.00999451
 11
28
 21
1.50999
  0
LINE
  8
0
 10
28
 20
1.50999
 11
28.2
 21
1.50999
  0
LINE
  8
0
 10
28.2
 20
1.50999
 11
28.2
 21
0.00999451
  0
LINE
  8
0
 10
28.2
 20
0.00999451
 11
28
 21
0.00999451
  0
LINE
  8
0
 10
29
 20
0.00999451
 11
29
 21
1.50999
  0
LINE
  8
0
 10
29
 20
1.50999
 11
29.2
 21
1.50999
  0
LINE
  8
0
 10
29.2
 20
1.50999
 11
29.2
 21
0.00999451
  0
LINE
  8
0
 10
29.2
 20
0.00999451
 11
29
 21
0.00999451
  0
LINE
  8
0
 10
30
 20
0.00999451
 11
30
 21
1.50999
  0
LINE
  8
0
 10
30
 20
1.50999
 11
30.2
 21
1.50999
  0
LINE
  8
0
 10
30.2
 20
1.50999
 11
30.2
 21
0.00999451
  0
LINE
  8
0
 10
30.2
 20
0.00999451
 11
30
 21
0.00999451
  0
LINE
  8
0
 10
34
 20
0.00999451
 11
34
 21
1.50999
  0
LINE
  8
0
 10
34
 20
1.50999
 11
34.2
 21
1.50999
  0
LINE
  8
0
 10
34.2
 20
1.50999
 11
34.2
 21
0.00999451
  0
LINE
  8
0
 10
34.2
 20
0.00999451
 11
34
 21
0.00999451
  0
LINE
  8
0
 10
94
 20
0.00999451
 11
94
 21
1.50999
  0
LINE
  8
0
 10
94
 20
1.50999
 11
94.2
 21
1.50999
  0
LINE
  8
0
 10
94.2
 20
1.50999
 11
94.2
 21
0.00999451
  0
LINE
  8
0
 10
94.2
 20
0.00999451
 11
94
 21
0.00999451
  0
LINE
  8
0
 10
83
 20
0.00999451
 11
83
 21
1.50999
  0
LINE
  8
0
 10
83
 20
1.50999
 11
83.2
 21
1.50999
  0
LINE
  8
0
 10
83.2
 20
1.50999
 11
83.2
 21
0.00999451
  0
LINE
  8
0
 10
83.2
 20
0.00999451
 11
83
 21
0.00999451
  0
LINE
  8
0
 10
84
 20
0.00999451
 11
84
 21
1.50999
  0
LINE
  8
0
 10
84
 20
1.50999
 11
84.2
 21
1.50999
  0
LINE
  8
0
 10
84.2
 20
1.50999
 11
84.2
 21
0.00999451
  0
LINE
  8
0
 10
84.2
 20
0.00999451
 11
84
 21
0.00999451
  0
LINE
  8
0
 10
85
 20
0.00999451
 11
85
 21
1.50999
  0
LINE
  8
0
 10
85
 20
1.50999
 11
85.2
 21
1.50999
  0
LINE
  8
0
 10
85.2
 20
1.50999
 11
85.2
 21
0.00999451
  0
LINE
  8
0
 10
85.2
 20
0.00999451
 11
85
 21
0.00999451
  0
LINE
  8
0
 10
87
 20
0.00999451
 11
87
 21
1.50999
  0
LINE
  8
0
 10
87
 20
1.50999
 11
87.2
 21
1.50999
  0
LINE
  8
0
 10
87.2
 20
1.50999
 11
87.2
 21
0.00999451
  0
LINE
  8
0
 10
87.2
 20
0.00999451
 11
87
 21
0.00999451
  0
LINE
  8
0
 10
88
 20
0.00999451
 11
88
 21
1.50999
  0
LINE
  8
0
 10
88
 20
1.50999
 11
88.2
 21
1.50999
  0
LINE
  8
0
 10
88.2
 20
1.50999
 11
88.2
 21
0.00999451
  0
LINE
  8
0
 10
88.2
 20
0.00999451
 11
88
 21
0.00999451
  0
LINE
  8
0
 10
89
 20
0.00999451
 11
89
 21
1.50999
  0
LINE
  8
0
 10
89
 20
1.50999
 11
89.2
 21
1.50999
  0
LINE
  8
0
 10
89.2
 20
1.50999
 11
89.2
 21
0.00999451
  0
LINE
  8
0
 10
89.2
 20
0.00999451
 11
89
 21
0.00999451
  0
LINE
  8
0
 10
90
 20
0.00999451
 11
90
 21
1.50999
  0
LINE
  8
0
 10
90
 20
1.50999
 11
90.2
 21
1.50999
  0
LINE
  8
0
 10
90.2
 20
1.50999
 11
90.2
 21
0.00999451
  0
LINE
  8
0
 10
90.2
 20
0.00999451
 11
90
 21
0.00999451
  0
LINE
  8
0
 10
92
 20
0.00999451
 11
92
 21
1.50999
  0
LINE
  8
0
 10
92
 20
1.50999
 11
92.2
 21
1.50999
  0
LINE
  8
0
 10
92.2
 20
1.50999
 11
92.2
 21
0.00999451
  0
LINE
  8
0
 10
92.2
 20
0.00999451
 11
92
 21
0.00999451
  0
LINE
  8
0
 10
93
 20
0.00999451
 11
93
 21
1.50999
  0
LINE
  8
0
 10
93
 20
1.50999
 11
93.2
 21
1.50999
  0
LINE
  8
0
 10
93.2
 20
1.50999
 11
93.2
 21
0.00999451
  0
LINE
  8
0
 10
93.2
 20
0.00999451
 11
93
 21
0.00999451
  0
LINE
  8
0
 10
82
 20
0.00999451
 11
82
 21
1.50999
  0
LINE
  8
0
 10
82
 20
1.50999
 11
82.2
 21
1.50999
  0
LINE
  8
0
 10
82.2
 20
1.50999
 11
82.2
 21
0.00999451
  0
LINE
  8
0
 10
82.2
 20
0.00999451
 11
82
 21
0.00999451
  0
LINE
  8
0
 10
95
 20
0.00999451
 11
95
 21
1.50999
  0
LINE
  8
0
 10
95
 20
1.50999
 11
95.2
 21
1.50999
  0
LINE
  8
0
 10
95.2
 20
1.50999
 11
95.2
 21
0.00999451
  0
LINE
  8
0
 10
95.2
 20
0.00999451
 11
95
 21
0.00999451
  0
LINE
  8
0
 10
97
 20
0.00999451
 11
97
 21
1.50999
  0
LINE
  8
0
 10
97
 20
1.50999
 11
97.2
 21
1.50999
  0
LINE
  8
0
 10
97.2
 20
1.50999
 11
97.2
 21
0.00999451
  0
LINE
  8
0
 10
97.2
 20
0.00999451
 11
97
 21
0.00999451
  0
LINE
  8
0
 10
98
 20
0.00999451
 11
98
 21
1.50999
  0
LINE
  8
0
 10
98
 20
1.50999
 11
98.2
 21
1.50999
  0
LINE
  8
0
 10
98.2
 20
1.50999
 11
98.2
 21
0.00999451
  0
LINE
  8
0
 10
98.2
 20
0.00999451
 11
98
 21
0.00999451
  0
LINE
  8
0
 10
99
 20
0.00999451
 11
99
 21
1.50999
  0
LINE
  8
0
 10
99
 20
1.50999
 11
99.2
 21
1.50999
  0
LINE
  8
0
 10
99.2
 20
1.50999
 11
99.2
 21
0.00999451
  0
LINE
  8
0
 10
99.2
 20
0.00999451
 11
99
 21
0.00999451
  0
LINE
  8
0
 10
100
 20
0.00999451
 11
100
 21
1.50999
  0
LINE
  8
0
 10
100
 20
1.50999
 11
100.2
 21
1.50999
  0
LINE
  8
0
 10
100.2
 20
1.50999
 11
100.2
 21
0.00999451
  0
LINE
  8
0
 10
100.2
 20
0.00999451
 11
100
 21
0.00999451
  0
LINE
  8
0
 10
102
 20
0.00999451
 11
102
 21
1.50999
  0
LINE
  8
0
 10
102
 20
1.50999
 11
102.2
 21
1.50999
  0
LINE
  8
0
 10
102.2
 20
1.50999
 11
102.2
 21
0.00999451
  0
LINE
  8
0
 10
102.2
 20
0.00999451
 11
102
 21
0.00999451
  0
LINE
  8
0
 10
103
 20
0.00999451
 11
103
 21
1.50999
  0
LINE
  8
0
 10
103
 20
1.50999
 11
103.2
 21
1.50999
  0
LINE
  8
0
 10
103.2
 20
1.50999
 11
103.2
 21
0.00999451
  0
LINE
  8
0
 10
103.2
 20
0.00999451
 11
103
 21
0.00999451
  0
LINE
  8
0
 10
105
 20
0.00999451
 11
105
 21
1.50999
  0
LINE
  8
0
 10
105
 20
1.50999
 11
105.2
 21
1.50999
  0
LINE
  8
0
 10
105.2
 20
1.50999
 11
105.2
 21
0.00999451
  0
LINE
  8
0
 10
105.2
 20
0.00999451
 11
105
 21
0.00999451
  0
LINE
  8
0
 10
70
 20
0.00999451
 11
70
 21
1.50999
  0
LINE
  8
0
 10
70
 20
1.50999
 11
70.2
 21
1.50999
  0
LINE
  8
0
 10
70.2
 20
1.50999
 11
70.2
 21
0.00999451
  0
LINE
  8
0
 10
70.2
 20
0.00999451
 11
70
 21
0.00999451
  0
LINE
  8
0
 10
60
 20
0.00999451
 11
60
 21
1.50999
  0
LINE
  8
0
 10
60
 20
1.50999
 11
60.2
 21
1.50999
  0
LINE
  8
0
 10
60.2
 20
1.50999
 11
60.2
 21
0.00999451
  0
LINE
  8
0
 10
60.2
 20
0.00999451
 11
60
 21
0.00999451
  0
LINE
  8
0
 10
62
 20
0.00999451
 11
62
 21
1.50999
  0
LINE
  8
0
 10
62
 20
1.50999
 11
62.2
 21
1.50999
  0
LINE
  8
0
 10
62.2
 20
1.50999
 11
62.2
 21
0.00999451
  0
LINE
  8
0
 10
62.2
 20
0.00999451
 11
62
 21
0.00999451
  0
LINE
  8
0
 10
63
 20
0.00999451
 11
63
 21
1.50999
  0
LINE
  8
0
 10
63
 20
1.50999
 11
63.2
 21
1.50999
  0
LINE
  8
0
 10
63.2
 20
1.50999
 11
63.2
 21
0.00999451
  0
LINE
  8
0
 10
63.2
 20
0.00999451
 11
63
 21
0.00999451
  0
LINE
  8
0
 10
64
 20
0.00999451
 11
64
 21
1.50999
  0
LINE
  8
0
 10
64
 20
1.50999
 11
64.2
 21
1.50999
  0
LINE
  8
0
 10
64.2
 20
1.50999
 11
64.2
 21
0.00999451
  0
LINE
  8
0
 10
64.2
 20
0.00999451
 11
64
 21
0.00999451
  0
LINE
  8
0
 10
65
 20
0.00999451
 11
65
 21
1.50999
  0
LINE
  8
0
 10
65
 20
1.50999
 11
65.2
 21
1.50999
  0
LINE
  8
0
 10
65.2
 20
1.50999
 11
65.2
 21
0.00999451
  0
LINE
  8
0
 10
65.2
 20
0.00999451
 11
65
 21
0.00999451
  0
LINE
  8
0
 10
67
 20
0.00999451
 11
67
 21
1.50999
  0
LINE
  8
0
 10
67
 20
1.50999
 11
67.2
 21
1.50999
  0
LINE
  8
0
 10
67.2
 20
1.50999
 11
67.2
 21
0.00999451
  0
LINE
  8
0
 10
67.2
 20
0.00999451
 11
67
 21
0.00999451
  0
LINE
  8
0
 10
68
 20
0.00999451
 11
68
 21
1.50999
  0
LINE
  8
0
 10
68
 20
1.50999
 11
68.2
 21
1.50999
  0
LINE
  8
0
 10
68.2
 20
1.50999
 11
68.2
 21
0.00999451
  0
LINE
  8
0
 10
68.2
 20
0.00999451
 11
68
 21
0.00999451
  0
LINE
  8
0
 10
69
 20
0.00999451
 11
69
 21
1.50999
  0
LINE
  8
0
 10
69
 20
1.50999
 11
69.2
 21
1.50999
  0
LINE
  8
0
 10
69.2
 20
1.50999
 11
69.2
 21
0.00999451
  0
LINE
  8
0
 10
69.2
 20
0.00999451
 11
69
 21
0.00999451
  0
LINE
  8
0
 10
104
 20
0.00999451
 11
104
 21
1.50999
  0
LINE
  8
0
 10
104
 20
1.50999
 11
104.2
 21
1.50999
  0
LINE
  8
0
 10
104.2
 20
1.50999
 11
104.2
 21
0.00999451
  0
LINE
  8
0
 10
104.2
 20
0.00999451
 11
104
 21
0.00999451
  0
LINE
  8
0
 10
72
 20
0.00999451
 11
72
 21
1.50999
  0
LINE
  8
0
 10
72
 20
1.50999
 11
72.2
 21
1.50999
  0
LINE
  8
0
 10
72.2
 20
1.50999
 11
72.2
 21
0.00999451
  0
LINE
  8
0
 10
72.2
 20
0.00999451
 11
72
 21
0.00999451
  0
LINE
  8
0
 10
73
 20
0.00999451
 11
73
 21
1.50999
  0
LINE
  8
0
 10
73
 20
1.50999
 11
73.2
 21
1.50999
  0
LINE
  8
0
 10
73.2
 20
1.50999
 11
73.2
 21
0.00999451
  0
LINE
  8
0
 10
73.2
 20
0.00999451
 11
73
 21
0.00999451
  0
LINE
  8
0
 10
74
 20
0.00999451
 11
74
 21
1.50999
  0
LINE
  8
0
 10
74
 20
1.50999
 11
74.2
 21
1.50999
  0
LINE
  8
0
 10
74.2
 20
1.50999
 11
74.2
 21
0.00999451
  0
LINE
  8
0
 10
74.2
 20
0.00999451
 11
74
 21
0.00999451
  0
LINE
  8
0
 10
75
 20
0.00999451
 11
75
 21
1.50999
  0
LINE
  8
0
 10
75
 20
1.50999
 11
75.2
 21
1.50999
  0
LINE
  8
0
 10
75.2
 20
1.50999
 11
75.2
 21
0.00999451
  0
LINE
  8
0
 10
75.2
 20
0.00999451
 11
75
 21
0.00999451
  0
LINE
  8
0
 10
77
 20
0.00999451
 11
77
 21
1.50999
  0
LINE
  8
0
 10
77
 20
1.50999
 11
77.2
 21
1.50999
  0
LINE
  8
0
 10
77.2
 20
1.50999
 11
77.2
 21
0.00999451
  0
LINE
  8
0
 10
77.2
 20
0.00999451
 11
77
 21
0.00999451
  0
LINE
  8
0
 10
78
 20
0.00999451
 11
78
 21
1.50999
  0
LINE
  8
0
 10
78
 20
1.50999
 11
78.2
 21
1.50999
  0
LINE
  8
0
 10
78.2
 20
1.50999
 11
78.2
 21
0.00999451
  0
LINE
  8
0
 10
78.2
 20
0.00999451
 11
78
 21
0.00999451
  0
LINE
  8
0
 10
79
 20
0.00999451
 11
79
 21
1.50999
  0
LINE
  8
0
 10
79
 20
1.50999
 11
79.2
 21
1.50999
  0
LINE
  8
0
 10
79.2
 20
1.50999
 11
79.2
 21
0.00999451
  0
LINE
  8
0
 10
79.2
 20
0.00999451
 11
79
 21
0.00999451
  0
LINE
  8
0
 10
80
 20
0.00999451
 11
80
 21
1.50999
  0
LINE
  8
0
 10
80
 20
1.50999
 11
80.2
 21
1.50999
  0
LINE
  8
0
 10
80.2
 20
1.50999
 11
80.2
 21
0.00999451
  0
LINE
  8
0
 10
80.2
 20
0.00999451
 11
80
 21
0.00999451
  0
ENDSEC
  0
SECTION
  2
OBJECTS
  0
DICTIONARY
  0
ENDSEC
  0
EOF
